<svg width="386.016412523276" height="55.134052938910884" viewBox="0 0 386.016412523276 55.134052938910884" class="css-1j8o68f"><defs id="SvgjsDefs3409"></defs><g id="SvgjsG3410" featurekey="nameLeftFeature-0" transform="matrix(1.2892776727676392,0,0,1.2892776727676392,-0.3352122742819391,10.378750770554756)" fill="#111111"><path d="M0.34 19.76 c0 -0.4 0.1 -0.28 0.26 -0.4 l1.5 0 c0.04 0 0.2 -0.16 0.2 -0.32 l0 -2.22 c0 -0.06 0.02 -0.14 0.02 -0.22 c0 0 -0.02 -0.16 -0.02 -0.18 c0 -0.34 0 -0.44 0.02 -0.54 c0 -1.86 -0.04 -6.22 -0.04 -10.12 c0 -0.14 -0.22 -0.14 -0.42 -0.28 c-0.06 0 -0.3 0.14 -0.44 0.14 l-0.92 0 c-0.08 -0.1 -0.24 -0.18 -0.24 -0.46 c0 -0.1 0.1 -0.28 0.78 -0.28 c0.8 0 2.28 0.06 2.62 0.06 c1.38 0 3.12 -0.04 3.84 -0.04 c2.12 0 2.7 0.44 3.18 0.54 l0.02 -0.02 c0.08 0 0.24 0.32 0.78 0.46 c0.14 0 0.7 0.64 0.76 0.66 c0 0.24 0.84 0.7 0.84 2.52 c0 0.86 -0.22 0.86 -0.24 1.16 l0 -0.02 c-0.04 0 -0.18 0.44 -0.28 0.44 c0 0 -0.18 0.46 -0.32 0.56 c-0.78 0.76 -0.6 0.4 -1.48 1.14 c-0.42 0 -0.28 0.36 -0.8 0.36 c-1.42 0.06 -1.02 0.3 -1.9 0.3 c-1 0.1 -1.34 0.18 -2.68 0.18 c0 0.02 -0.16 0.02 -0.16 0.42 l0.04 2.54 l-0.04 0.08 l0 0.3 c0 0.16 0 0.3 0.04 0.34 c0 0 -0.06 0.08 -0.06 1.22 c0 0.62 0.06 1.32 0.46 1.32 c0.22 0 0.36 -0.04 0.5 -0.04 c1.42 0 1.14 0.06 1.3 0.36 c-0.12 0.1 -0.04 0.26 -0.24 0.26 l-0.5 0 c-0.04 -0.14 -0.14 -0.14 -0.24 -0.2 c-0.04 0.02 -0.08 0.02 -0.08 0.06 l0.2 0.1 l-0.04 0.04 l-0.62 0 l-0.1 -0.04 c-0.06 0 -0.24 0.04 -0.32 0.04 l-2.28 0 c-0.04 0 -0.26 0.04 -0.32 0.04 c-0.32 0 -1.16 -0.02 -1.18 -0.08 l0 -0.02 c-0.06 0 -0.34 0.1 -0.8 0.1 c-0.54 0 -0.62 -0.12 -0.62 -0.2 c0 -0.04 0.02 -0.06 0.02 -0.06 z M1.5 19.84 c0.02 0.04 0.06 0.1 0.08 0.1 s0.06 -0.02 0.16 -0.06 c0 0 -0.08 -0.06 -0.12 -0.06 c-0.1 0 -0.08 0 -0.12 0.02 z M1.2 19.88 l0 -0.02 c-0.02 0 -0.02 0 -0.02 0.02 s0 0.04 0.02 0.04 l0 -0.04 z M2.1 19.88 c0 -0.02 -0.02 -0.02 -0.08 -0.02 c-0.04 0 -0.08 0 -0.08 0.02 s0.04 0.04 0.08 0.04 s0.08 -0.02 0.08 -0.04 z M3.24 19.84 c-0.02 0 -0.04 0.02 -0.04 0.04 s0.02 0.04 0.04 0.04 c0 0 0.02 -0.02 0.02 -0.04 s-0.02 -0.04 -0.02 -0.04 z M5.9 19.84 c-0.02 -0.02 -0.02 0.02 -0.02 0.04 c0 0 0.02 -0.02 0.02 -0.04 z M0.76 19.78 c-0.02 0 -0.04 0.02 -0.04 0.04 s0.02 0.02 0.04 0.02 s0.02 0 0.02 -0.02 s0 -0.04 -0.02 -0.04 z M0.72 19.76 c-0.02 0 -0.04 0.02 -0.04 0.04 c0 0 0.02 0.02 0.04 0.02 s0.02 -0.02 0.02 -0.02 c0 -0.02 0 -0.04 -0.02 -0.04 z M6.76 19.52 c0 0.1 0.1 0.18 0.24 0.24 c0.28 0 0.28 -0.08 0.32 -0.12 c-0.02 -0.16 -0.1 -0.16 -0.16 -0.16 c-0.02 0 -0.04 0.08 -0.06 0.12 c-0.2 0 -0.2 -0.12 -0.32 -0.12 c-0.02 0 -0.02 0.02 -0.02 0.04 z M0.84 19.52 c0 -0.02 0 -0.02 -0.02 -0.02 c0 0 -0.02 0 -0.02 0.02 s0.02 0.04 0.02 0.04 c0.02 0 0.02 -0.02 0.02 -0.04 z M2.68 19.48 c-0.02 0 -0.04 0.02 -0.04 0.04 s0.02 0.04 0.04 0.04 s0.02 -0.02 0.02 -0.04 s0 -0.04 -0.02 -0.04 z M2.56 19.44 c-0.02 0 -0.04 0.02 -0.04 0.04 l0.04 0 l0.02 0 c0 -0.02 0 -0.04 -0.02 -0.04 z M5.2 10.54 c0 1.32 -0.04 2.06 0.26 2.12 l0.78 0 c0.02 0 0.08 -0.02 0.12 -0.02 c0.64 -0.16 0.84 -0.08 1.3 -0.22 c0.9 0 0.94 -0.38 1.22 -0.46 c0.14 0 0.48 -0.58 0.58 -0.68 l-0.02 0 c0 -0.04 0.22 -0.26 0.22 -0.5 c0 -0.44 0.2 -0.24 0.2 -1.22 c0 -1.06 -0.16 -2.14 -0.16 -2.5 c0.02 -0.02 0.02 -0.04 0.02 -0.06 c0 -0.1 -0.24 -0.22 -0.24 -0.36 c0 -0.02 0.02 -0.04 0.02 -0.06 c0 -0.72 -1.74 -1 -2.02 -1 c-0.26 0 -0.62 0.02 -1.16 0.02 c-0.06 -0.04 -0.12 -0.04 -0.18 -0.04 c-0.2 0 -0.42 0.04 -0.62 0.04 l-0.08 0 c-0.08 0 -0.2 0.06 -0.24 0.46 l0 1.1 s-0.04 0.08 -0.04 0.1 c0.06 0.34 0.06 0.8 0.06 1.28 c0 0.28 -0.02 1.98 -0.02 2 z M2.46 11.86 c0 0.04 0 0.06 0.02 0.06 z M8.96 5.4399999999999995 c-0.02 0 -0.02 0.02 -0.02 0.04 s0 0.04 0.02 0.04 s0.02 -0.02 0.02 -0.04 s0 -0.04 -0.02 -0.04 z M1.18 5.359999999999999 c-0.04 0 -0.14 0.04 -0.14 0.08 l0.02 0 s0.06 0 0.06 0.02 c0.02 0 0.06 -0.02 0.06 -0.1 z M1.4 5.4 c-0.02 0 -0.02 0.02 -0.02 0.04 l0.04 0 c0 -0.02 -0.02 -0.04 -0.02 -0.04 z M1.86 5.4399999999999995 c0 -0.02 -0.04 -0.02 -0.06 -0.02 c-0.04 0 -0.06 0 -0.06 0.02 c-0.02 0 0.1 0 0.12 0 z M8.88 5.359999999999999 l0.02 0.08 s0.04 0 0.06 -0.08 l-0.08 0 z M8.84 5.279999999999999 c-0.02 0 -0.04 0.02 -0.04 0.04 s0.02 0.04 0.04 0.04 s0.02 -0.02 0.02 -0.04 s0 -0.04 -0.02 -0.04 z M0.6 5.08 c-0.08 0.06 -0.1 0.16 -0.12 0.2 c0.12 -0.06 0.12 -0.08 0.12 -0.2 z M1.12 5.140000000000001 c-0.04 0 -0.12 0.04 -0.12 0.08 c0 0.02 0.04 0.02 0.08 0.02 s0.08 0 0.1 -0.04 c0 -0.06 -0.04 -0.06 -0.06 -0.06 z M7.16 5.24 c0 -0.02 -0.02 -0.02 -0.04 -0.02 c-0.04 0 -0.06 0 -0.06 0.02 s0.02 0.02 0.06 0.02 c0.02 0 0.04 0 0.04 -0.02 z M2.18 5.16 l-0.04 0.04 l0.04 0 l0 -0.04 z M16.878 19.82 l0 -0.1 c0.04 -0.04 -0.02 -0.38 0.42 -0.38 c0.34 0 0.4 0.02 0.58 0.02 c0.4 0 0.7 -0.02 0.76 -0.12 l0 -1.7 c0 -0.04 -0.02 -0.18 -0.02 -0.2 l-0.02 0.02 c-0.04 -0.04 0.04 0.18 0.04 -0.54 c0 -1.5 -0.02 -2.06 -0.02 -2.56 c0 -0.32 0 -0.94 0.04 -1.46 c0 -0.04 -0.08 -0.3 -0.08 -0.8 c0 -0.24 0.06 -0.24 0.06 -0.36 c0 -0.32 -0.02 -0.62 -0.02 -0.86 c0 -0.42 0.02 -0.74 0.02 -1.2 c0 -0.12 0.3 -0.1 0.36 -0.16 c0 0 0 -0.1 -0.18 -0.1 c0 0 -0.06 0 -0.12 0.08 c-0.02 0 -0.04 -0.02 -0.06 -0.08 l0 -3.38 c0 -0.26 -0.06 -0.42 -0.32 -0.42 c-0.38 0 -0.46 0.06 -1.14 0.06 c-0.54 0 -0.22 -0.08 -0.52 -0.26 c0 -0.48 1.5 -0.34 1.92 -0.4 l-0.06 0 c0 0.02 1.16 0.08 1.16 0.08 c0.04 0 0.08 0.02 0.12 0.02 c0.24 0 0.34 -0.1 0.52 -0.1 c0.08 0 0.16 0.02 0.26 0.02 c0.06 0 0.22 -0.02 0.32 -0.02 c0.24 0 0.96 0.02 1.18 0.02 c0.16 0 0.28 -0.06 0.6 -0.06 c0.1 0 1.84 0.04 2.06 0.04 c0.4 0 1.06 0.2 1.6 0.2 c0.76 0.08 0.3 0.18 1.06 0.36 c-0.02 0 -0.04 -0.02 -0.04 -0.02 c0 0.02 0.56 0.32 0.56 0.38 c0.24 0.06 0.6 0.56 0.78 0.72 l-0.02 -0.02 s0.54 0.76 0.54 1.44 c0 0.74 0 0.78 -0.16 1.28 c0 0.34 -0.46 0.94 -1.26 1.62 c-0.1 -0.04 -0.22 0.34 -0.58 0.34 c0.06 -0.2 -0.1 0.26 -0.66 0.3 c-0.02 -0.02 -0.04 -0.02 -0.04 -0.02 c-0.1 0 -0.24 0.18 -0.32 0.18 c-0.76 0.2 -1.1 0.12 -1.1 0.42 c0 0 -0.04 0.16 0.12 0.16 c0.22 -0.04 0.58 0.32 0.7 0.32 c0.42 0 0.5 0.38 0.84 0.38 c0.36 0.16 0.5 0.28 0.94 0.74 c0.44 1.3 0.78 0.6 0.78 1.58 c0 0.54 0.18 0.92 0.18 1.46 c0 0.08 -0.04 0.42 -0.04 1.12 c0.04 0.26 0.06 0.78 0.14 0.86 l0 -0.04 c0 0.02 -0.06 0.66 0.64 0.66 c0.48 0 0.7 -0.06 0.84 -0.06 c0 0 0.02 0.02 0.04 0.02 c0.04 0 0.14 -0.04 0.22 -0.04 s0.16 0.02 0.2 0.1 l-0.14 0 c0 0.1 0.06 0.1 0.06 0.14 c0.04 -0.02 0.06 -0.06 0.08 -0.06 l0.02 0 l0 0.26 c-0.06 0 -0.06 -0.06 -0.06 -0.14 c-0.04 0.02 -0.06 0.02 -0.16 0.06 c0 0.04 0.02 0.08 0.16 0.14 c-0.08 0.04 -0.1 0.14 -0.2 0.14 l0 -0.02 s-0.1 0.2 -0.7 0.2 c-0.22 0 -1.58 -0.08 -1.94 -0.1 c0 0.02 0 0.02 -0.02 0.02 c-0.16 0 -0.54 -0.4 -0.86 -0.4 l0.02 0 c0 -0.08 -0.9 -0.5 -0.92 -0.88 l0.02 0.02 c0 -0.02 -0.2 -0.2 -0.2 -0.26 c0 -0.04 0.02 -0.16 0.02 -0.28 c0 -0.06 -0.06 -0.06 -0.16 -0.1 c-0.14 -3.26 -0.44 -4.16 -0.74 -4.6 c-0.06 0.22 0.08 -0.24 -0.38 -0.46 c0 -0.14 -0.62 -0.36 -0.6 -0.44 c-0.04 0 -0.08 0.02 -0.1 0.02 c-0.42 0 -0.4 -0.4 -1.08 -0.4 l-1.08 0 c-0.22 0.46 -0.22 1.04 -0.22 1.32 c0 0.06 0 0.52 0.04 0.56 c0 0.02 -0.02 0.08 -0.06 0.28 c0 0.06 0.04 0.3 0.04 0.46 l0 -0.02 c0 0.12 -0.02 0.56 -0.02 0.7 c0 0.26 0.02 0.32 0.02 0.5 l0 2.32 c0 0.04 0.04 0.16 0.04 0.2 c0 0.06 -0.04 0.18 -0.04 0.26 c0 0.26 0.04 0.3 0.04 0.4 c-0.02 0.02 -0.04 0.02 -0.04 0.04 c0 0.06 0.28 0.1 0.82 0.1 c0.02 0 0.42 -0.04 0.44 -0.04 c0.56 0 0.56 0.04 0.68 0.2 c0 0.36 -0.08 0.42 -0.14 0.42 c-0.02 0 -0.04 -0.02 -0.08 -0.1 c-0.1 0 -0.12 0 -0.12 0.02 c0.16 0.18 -1.94 0.18 -2.16 0.18 l0.04 0 s-0.68 -0.02 -0.94 -0.08 c-0.8 0.08 -2.18 0 -2.74 0.2 c-0.24 0 -0.46 0 -0.46 -0.32 z M29.218 19.94 c-0.02 0 -0.04 0.02 -0.04 0.04 s0.02 0.04 0.04 0.04 c0 0 0.02 -0.02 0.02 -0.04 s-0.02 -0.04 -0.02 -0.04 z M29.758000000000003 19.76 c-0.14 0 -0.1 0.08 -0.16 0.18 c0 0 0.02 0.02 0.04 0.02 c0.06 0 0.12 -0.1 0.12 -0.2 z M17.918 19.88 c-0.04 0 -0.1 0 -0.14 0.02 c0.04 0 0.1 0 0.14 -0.02 z M17.958 19.88 l0 0.02 l0.04 0 z M18.678 19.9 l-0.02 -0.02 c-0.02 0 -0.02 0.02 -0.02 0.02 c0 0.02 0 0.04 0.02 0.04 c0 0 0.02 -0.02 0.02 -0.04 z M19.058 19.86 c-0.02 0.02 -0.04 0.02 -0.04 0.04 c0.02 0 0.06 0 0.08 -0.02 z M22.158 19.82 l0 0.06 l0.12 0 c-0.04 -0.04 -0.06 -0.06 -0.12 -0.06 z M22.938 19.86 c-0.02 0 -0.04 0.02 -0.04 0.02 s0.02 0.02 0.04 0.02 s0.02 -0.02 0.02 -0.02 s0 -0.02 -0.02 -0.02 z M29.838 19.7 c-0.02 0.06 0.08 0.16 0.08 0.18 c0.1 0 0.1 0 0.16 -0.02 c-0.06 -0.18 0 -0.22 -0.16 -0.3 c-0.06 0.04 -0.08 0.02 -0.08 0.14 z M21.878 19.82 l-0.04 0.04 l0.04 0 l0 -0.04 z M23.218 19.46 c0 0.18 0.12 0.18 0.12 0.32 l0.04 0 l0 -0.22 c-0.02 -0.04 -0.06 -0.08 -0.16 -0.1 z M17.218 19.5 l0 0.06 c0 -0.02 0.02 0.18 0.14 0.18 c0.02 0 0.06 -0.04 0.1 -0.08 c-0.02 0.02 -0.16 -0.16 -0.22 -0.16 l-0.02 0 z M17.558 19.7 c0 -0.02 -0.02 -0.02 -0.02 -0.02 c-0.02 0 -0.02 0 -0.02 0.02 c0 0 0 0.02 0.02 0.02 z M21.918 19.66 c-0.02 0 -0.02 0.02 -0.02 0.02 c0 0.02 0 0.02 0.02 0.02 s0.02 0 0.02 -0.02 c0 0 0 -0.02 -0.02 -0.02 z M22.538 19.6 l0 0.1 c0.04 -0.02 0.08 -0.04 0.1 -0.08 c-0.04 -0.02 -0.06 -0.02 -0.1 -0.02 z M17.218 19.36 c-0.02 0 -0.02 0.02 -0.02 0.04 s0 0.04 0.02 0.04 s0.02 -0.02 0.02 -0.04 s0 -0.04 -0.02 -0.04 z M26.438000000000002 18.84 c0.02 0.04 0.04 0.1 0.04 0.1 c0.02 0 0.02 0 0.02 -0.02 l0 -0.08 l-0.06 0 z M20.858 18.3 l0.08 0.04 c0.04 -0.02 0.04 -0.06 0.04 -0.1 c-0.06 0 -0.08 0.02 -0.12 0.06 z M25.598 17.5 c0.02 0 0.02 0.02 0.02 0.04 c0 0 0 0.02 -0.02 0.02 s-0.02 -0.02 -0.02 -0.02 c0 -0.02 0 -0.04 0.02 -0.04 z M25.838 17.48 c0.02 0.02 0.04 0.02 0.08 0.02 c-0.04 -0.02 -0.06 -0.02 -0.08 -0.02 z M18.898 15.4 c-0.02 0 -0.04 0.02 -0.04 0.04 s0.02 0.04 0.04 0.04 s0.02 -0.02 0.02 -0.04 s0 -0.04 -0.02 -0.04 z M18.738 14.879999999999999 c-0.02 0 -0.04 0.02 -0.04 0.04 s0.02 0.04 0.04 0.04 s0.02 -0.02 0.02 -0.04 s0 -0.04 -0.02 -0.04 z M25.418 12.48 c-0.02 0 -0.04 0.02 -0.04 0.02 c0 0.02 0.02 0.04 0.04 0.04 c0 0 0.02 -0.02 0.02 -0.04 z M20.637999999999998 12.14 l0 0.08 l0.02 0.02 c0.06 0 0.14 -0.08 0.14 -0.1 l-0.16 0 z M20.678 11.94 c0 0.02 -0.02 0.02 -0.02 0.02 c0 0.02 0.02 0.02 0.08 0.02 c0 0 0.02 0 0.06 -0.02 c-0.02 -0.06 0 -0.08 -0.06 -0.16 c-0.02 0 -0.08 0.12 -0.06 0.14 z M21.518 10.22 l0 1.02 c0 0.34 0.2 0.4 0.38 0.5 c3.18 -0.08 3.18 -0.52 3.48 -0.82 c-0.02 0 -0.02 -0.02 -0.02 -0.02 c0 -0.1 0.3 -0.3 0.3 -0.44 l-0.02 0 c0 -0.08 0.42 -0.74 0.42 -1.6 c0 -2.04 -0.56 -2.42 -0.64 -2.84 c0 -0.02 -0.6 -0.54 -1.3 -0.54 c-0.44 0 -0.54 0.04 -0.7 0.04 l-1.5 0 c-0.42 0 -0.26 0.2 -0.38 0.42 l0 1.58 l0.04 0.1 c0 0.78 -0.08 1.5 -0.08 2.2 c0 0.04 0 0.1 0.06 0.16 c0 0.04 -0.04 0.1 -0.04 0.24 z M18.898 9.78 c-0.02 0 -0.04 0.02 -0.04 0.02 l0.04 0 l0.02 0 s0 -0.02 -0.02 -0.02 z M18.838 9.68 c-0.02 0 -0.02 0.02 -0.02 0.04 c0 0 0 0.02 0.02 0.02 l0.02 -0.02 c0 -0.02 -0.02 -0.04 -0.02 -0.04 z M18.898 9.58 c-0.02 0 -0.04 0.02 -0.04 0.04 c0 0 0.02 0.02 0.04 0.02 s0.02 -0.02 0.02 -0.02 c0 -0.02 0 -0.04 -0.02 -0.04 z M18.738 8.42 l0 0.1 l0.04 0 c0 -0.04 0 -0.08 -0.04 -0.1 z M27.758000000000003 6.1 c0.02 0.04 0.08 0.04 0.1 0.04 l0 -0.12 c-0.06 0 -0.1 0 -0.1 0.08 z M26.238 5.42 c-0.02 0 -0.04 0.02 -0.04 0.04 s0.02 0.02 0.04 0.02 s0.02 0 0.02 -0.02 s0 -0.04 -0.02 -0.04 z M17.958 5.279999999999999 c0.04 0.02 0.08 0.02 0.12 0.02 l-0.08 -0.06 z M19.898 5.279999999999999 l0 -0.02 c-0.02 0 -0.02 0 -0.02 0.02 s0 0.02 0.02 0.02 l0 -0.02 z M24.578 5.24 l0.08 0.04 c0.1 0 0.1 -0.04 0.1 -0.14 c0 -0.02 -0.02 -0.02 -0.1 -0.02 c-0.04 0 -0.08 0 -0.08 0.12 z M22.538 5.119999999999999 c0 0.04 -0.02 0.12 0.04 0.12 c0.02 -0.02 0.04 -0.08 0.06 -0.12 l-0.1 0 z M25.338 5.199999999999999 c-0.02 0 -0.04 0.02 -0.04 0.02 c0 0.02 0.02 0.02 0.04 0.02 s0.02 0 0.02 -0.02 c0 0 0 -0.02 -0.02 -0.02 z M18.258 5.119999999999999 l0 0.04 c0 -0.02 0.06 0.04 0.1 -0.04 l-0.1 0 z M23.418 5.119999999999999 c-0.04 0 -0.06 0.02 -0.08 0.04 l0.08 0 l0 -0.04 z M16.878 5.119999999999999 l0.02 0 l0.48 0 l-0.5 0 z M37.676 19.46 l0.04 -0.04 c0 -0.02 0 -0.02 -0.04 -0.04 l0 0 l-0.02 0 c-0.02 0 -0.04 0 -0.06 0.04 l0 -0.02 s-0.02 0.04 -0.1 0.04 s-0.2 -0.02 -0.36 -0.14 c0 0.02 -0.02 0.02 -0.02 0.02 c-0.04 0 -0.2 -0.22 -0.26 -0.22 c-0.1 0 -0.38 -0.08 -1.62 -1.32 l0 -0.08 c-0.24 -0.12 -0.5 -0.46 -0.58 -0.62 c-0.04 -0.78 -0.62 -0.22 -0.62 -1.2 c-0.02 0 -0.06 0.04 -0.06 0.04 c0.02 0 0.02 0 0.02 -0.02 c0 -0.06 -0.48 -0.42 -0.48 -0.84 c-0.12 -0.9 -0.2 -0.54 -0.2 -1.16 l-0.04 -0.04 c0 -0.2 -0.06 -0.62 -0.16 -0.8 l0.02 -1.44 l0.06 -0.82 c0.02 -0.26 0.18 -0.38 0.2 -1.18 l0 0.02 c0.02 0 0.18 -0.7 0.32 -0.84 l-0.02 0.02 c-0.02 0 0.4 -0.54 0.4 -0.68 c0 -0.16 0.52 -0.44 0.52 -0.82 c0.2 -0.18 0 -0.08 0.86 -0.92 c0.22 0 0.14 -0.36 0.36 -0.36 l-0.02 -0.04 c0.06 0 0.2 -0.12 0.42 -0.34 c0.64 -0.42 -0.4 0.04 1.7 -0.94 c0 0 0.02 0.02 0.04 0.02 c0.22 0 0.68 -0.3 1 -0.3 c0.44 0 1.8 -0.08 1.98 -0.08 c0.7 0 0.9 0.26 1.1 0.26 c0.74 0.06 0.94 0.58 1.22 0.58 c0.02 0 0.02 -0.02 0.08 -0.02 c0.08 0 0.26 0.08 0.74 0.56 c0 0.14 0.24 0.14 0.32 0.26 l-0.04 0.04 c0.1 0.04 0.48 0.32 0.64 0.64 c0 0.06 0.36 0.18 0.36 0.38 c-0.02 0 -0.02 0 -0.02 0.02 c0 0.06 0.5 0.4 0.5 0.62 c-0.02 0 -0.04 0 -0.04 0.02 c0 0.06 0.4 0.3 0.4 0.6 c0.06 0.54 0.52 0.7 0.52 1.16 c-0.02 0.02 -0.02 0.04 -0.02 0.06 c0 0.16 0.34 0.46 0.34 1.1 c0 0.8 0.16 1.36 0.16 1.48 c0 0.34 -0.2 0.94 -0.2 1.68 c-0.16 0.9 -0.92 2.58 -1.12 2.72 c-0.04 0 -0.24 0.5 -0.42 0.58 c0 -0.02 -0.7 1.04 -1.16 1.22 c-0.3 0.2 -0.18 0.26 -1.22 0.98 c-0.04 0.06 -0.4 0.02 -0.6 0.2 c-1.72 0.58 -1.68 0.46 -1.8 0.58 l-1.38 0 c-0.06 0 -0.24 -0.1 -0.34 -0.1 c-0.04 0 -0.5 -0.26 -0.8 -0.26 c-0.4 0 -0.32 -0.24 -0.5 -0.26 z M40.156 19.88 c0 0 -0.02 0.02 -0.02 0.04 l0.02 0.02 c0.02 0 0.02 -0.02 0.02 -0.02 c0 -0.02 0 -0.04 -0.02 -0.04 z M40.736000000000004 19.88 c0 0.02 -0.02 0.02 -0.02 0.02 c0 0.02 0.02 0.02 0.06 0.04 l0.04 -0.06 l-0.08 0 z M40.876000000000005 19.84 c-0.02 0 -0.04 0.02 -0.04 0.04 s0.02 0.04 0.04 0.04 l0 -0.08 z M38.776 19.78 c0 -0.02 -0.02 -0.02 -0.02 -0.02 c-0.02 0 -0.02 0 -0.02 0.02 s0 0.04 0.02 0.04 c0 0 0.02 -0.02 0.02 -0.04 z M38.716 19.72 c-0.02 0 -0.04 0.02 -0.04 0.02 c0 0.02 0.02 0.04 0.04 0.04 l0 -0.06 z M40.156 19.72 l-0.02 0.02 l0.04 0 s0 -0.02 -0.02 -0.02 z M40.696 19.7 c0 0 -0.02 0.02 -0.02 0.04 l0.04 0 c0 -0.02 0 -0.04 -0.02 -0.04 z M39.436 19.66 c-0.02 0 -0.04 0.02 -0.04 0.04 c0 0 0.02 0.02 0.04 0.02 l0 -0.06 z M40.776 19.66 c-0.02 0 -0.04 0.02 -0.04 0.04 c0 0 0.02 0.02 0.04 0.02 s0.02 -0.02 0.02 -0.02 c0 -0.02 0 -0.04 -0.02 -0.04 z M41.516000000000005 19.5 c-0.02 0 -0.04 0.02 -0.04 0.04 c0 0 0.02 0.02 0.04 0.02 s0.02 -0.02 0.02 -0.02 c0 -0.02 0 -0.04 -0.02 -0.04 z M36.576 16.36 c0.06 0.2 0.14 0.3 0.14 0.56 c0 0.3 0.32 0.56 0.32 0.94 c0.26 0.4 -0.18 -0.04 0.8 0.96 c0.02 0 0.02 -0.02 0.02 -0.02 c0.06 0 0 0.24 0.44 0.24 c-0.02 0 0.5 0.34 1.18 0.34 l0.78 0 c0.88 0 1.58 -0.06 2.24 -0.72 c-0.02 0 0.5 -0.38 0.54 -0.58 c0 0.02 0 0.04 0.02 0.04 c0.08 0 0.46 -0.96 0.46 -1.32 c0 -1.78 0.32 -2.84 0.32 -3.12 c0 -0.06 -0.04 -0.26 -0.04 -0.46 c0 -0.62 0.04 -0.84 0.04 -1.1 c0 -0.06 -0.08 -0.66 -0.08 -0.7 c0 0 -0.02 0 -0.02 -0.02 c0 -0.06 0.08 -0.26 0.08 -0.82 c0 -0.06 -0.08 -0.2 -0.08 -0.66 c0 -1.68 -0.3 -2.18 -0.34 -2.82 l-0.02 0.02 c-0.06 0 0.04 -0.38 -0.22 -0.64 c-0.58 -0.58 -0.56 -0.78 -0.66 -0.82 c-0.04 0 -0.28 -0.24 -0.32 -0.24 c0 0.02 0 0.06 -0.02 0.06 c-0.08 0 -0.54 -0.48 -1.04 -0.48 c-0.46 0 -0.8 -0.12 -1.14 -0.12 c-0.74 0 -1.42 0.5 -1.84 0.5 c-0.34 0.08 -0.6 0.36 -0.9 0.88 c-0.02 0.04 -0.46 0.36 -0.46 0.96 c0 0.02 0.02 0.02 0.02 0.04 c0 0.08 -0.22 0.2 -0.22 1.02 c-0.04 1.14 -0.2 -0.38 -0.2 2.72 l0 1.9 c0 0.64 0.04 0.98 0.04 2.02 l0.04 0.06 c0 0.28 0.04 0.8 0.12 0.8 l0 0.58 z M42.896 19.2 l0 0.02 l0.04 0 z M36.696 18.84 c-0.02 0 -0.04 0.02 -0.04 0.02 c0 0.02 0.02 0.02 0.04 0.02 c0 0 0.02 0 0.02 -0.02 z M36.656 18.78 c-0.02 0 -0.04 0.02 -0.04 0.04 s0.02 0.02 0.04 0.02 s0.02 0 0.02 -0.02 s0 -0.04 -0.02 -0.04 z M36.816 18.24 l0 0.04 l0.04 0 l0 -0.04 l-0.04 0 z M35.136 17.46 c0.02 0.02 -0.02 0.04 0.06 0.04 c-0.02 -0.04 -0.06 -0.04 -0.06 -0.04 z M34.336 16.36 c-0.02 0 -0.04 0.02 -0.04 0.04 s0.02 0.04 0.04 0.04 s0.02 -0.02 0.02 -0.04 s0 -0.04 -0.02 -0.04 z M33.276 12.54 c0.02 0.02 0.02 0.04 0.04 0.04 l0.02 -0.02 z M45.016000000000005 7.16 l0 -0.02 c-0.02 0 -0.02 0 -0.02 0.02 s0 0.02 0.02 0.02 l0 -0.02 z M44.116 6.119999999999999 c0 0 -0.02 0.02 -0.02 0.04 s0.02 0.04 0.02 0.04 c0.02 0 0.02 -0.02 0.02 -0.04 s0 -0.04 -0.02 -0.04 z M36.816 5.58 c-0.06 0 -0.08 0 -0.12 0.04 l0.12 0 l0 -0.04 z M37.636 5.16 l-0.02 0 c0 0.02 0 0.04 0.02 0.04 l0 -0.04 z M41.416000000000004 4.84 c-0.08 0 -0.2 0.02 -0.26 0.04 l0 0.02 c0.06 0 0.26 0.02 0.26 -0.04 l0 -0.02 z M39.476 4.74 l-0.02 0.02 c0 0.02 0.06 0.04 0.1 0.04 l0 -0.16 c-0.08 0 -0.08 0.04 -0.08 0.1 z M41.716 4.779999999999999 c-0.02 0 -0.04 0.02 -0.04 0.02 c0 0.02 0.02 0.04 0.04 0.04 c0 0 0.02 -0.02 0.02 -0.04 z M38.776 4.779999999999999 c0 -0.02 -0.04 -0.02 -0.06 -0.02 s-0.06 0 -0.06 0.02 s0.02 0.02 0.06 0.02 c0 0 0.04 0 0.06 -0.02 z M38.936 4.74 l0 0.04 l0.06 0 l0 -0.04 l-0.06 0 z M39.936 4.619999999999999 c-0.02 0 -0.14 0.08 -0.22 0.12 l0.02 0.02 c0.08 0 0.2 -0.08 0.2 -0.14 z M40.836 4.619999999999999 l0 0.06 l0.04 0 l0 -0.06 l-0.04 0 z M52.554 22 c-0.28 -0.06 -0.5 -0.34 -0.86 -0.34 l0.08 -0.04 c-0.08 -0.16 -0.32 -0.3 -0.44 -0.42 c0 -0.32 -0.5 0.04 -0.5 -1.28 c0 -0.56 0.24 -0.78 0.42 -1.06 l0 0.02 l0 0 c0 -0.06 0.5 -0.58 1.1 -0.58 c0.38 0 0.4 0.16 0.66 0.16 l0 0.04 c0.5 0.08 0.7 0.6 0.86 1.06 l0 0.56 c-0.04 0 -0.08 0.18 -0.1 0.2 c0.02 0.02 0.02 0.04 0.02 0.06 c0 0.12 -0.3 0.28 -0.3 0.62 c0 0.3 0.16 0.18 0.34 0.3 c0.8 0 0.58 -0.42 1.06 -0.46 l-0.04 0 c0 -0.06 0.28 -0.3 0.32 -0.38 c0 -1.34 0.18 0.3 0.18 -1.9 c0 -0.6 -0.06 -2.06 -0.06 -2.44 c0 -0.84 0.04 -0.86 0.04 -1.1 c0 -0.1 -0.04 -0.28 -0.04 -0.3 s0.02 -0.04 0.04 -0.08 l0 -0.4 c0 -0.06 0.12 -0.14 0.12 -0.32 l-0.04 0.08 l-0.04 0 c-0.04 -0.56 -0.1 -2 -0.1 -2.1 c0 -0.02 0.06 -0.04 0.06 -0.36 l0 0.02 c0 -0.02 -0.04 -0.2 -0.04 -0.26 l0 -4.52 c0 -0.04 0.04 -0.26 0.04 -0.34 c0 -0.4 0 -0.72 -0.24 -0.86 l-1.88 0 c-0.02 -0.04 -0.18 -0.04 -0.18 -0.28 c0 -0.46 0.16 -0.3 0.3 -0.42 l5.34 0 c0.6 0 0.94 -0.04 0.98 -0.04 c0.2 0 0.58 0.04 0.58 0.34 c-0.1 0 0.08 0.4 -0.42 0.4 c-0.12 0 -0.34 -0.04 -0.5 -0.04 c-0.46 0 -0.9 0.04 -1.04 0.1 c0 -0.02 0 -0.02 -0.02 -0.02 s-0.06 0.5 -0.06 1.54 c-0.06 0 -0.12 0 -0.16 0.02 c0.2 1.02 0.22 1.96 0.22 2.64 c0 0.74 -0.02 1.02 -0.02 1.1 c0 0.12 0.02 0.26 0.02 0.38 c0 0.16 -0.02 0.36 -0.02 0.38 c0 0.08 0.02 0.18 0.02 0.28 c-0.02 0.04 -0.02 0.06 -0.02 0.12 c0 0.12 0.02 0.36 0.02 0.66 c0 0.06 0 0.38 -0.02 0.44 c0 0.04 0.02 0.2 0.02 0.26 c0 0.02 -0.04 0.24 -0.04 0.66 c0 0.08 0.02 0.16 0.04 0.18 c-0.02 0 -0.02 0.46 -0.02 0.5 c0 0.24 0.02 0.42 0.02 0.66 c0 0.02 -0.02 0.36 -0.02 0.38 c0 0.04 0.02 0.22 0.02 0.26 s-0.02 0.16 -0.02 0.36 c0 0 0 0.06 0.02 0.12 l0 1 c0 0.04 -0.02 0.12 -0.02 0.16 c0 0 0 0.1 0.02 0.28 c0 0.22 -0.14 0.14 -0.14 0.6 c-0.08 0.84 -0.02 0.32 -0.38 1.12 c-0.36 0.34 0.1 -0.06 -0.56 0.74 c-0.68 0.38 0.16 0.02 -0.9 0.76 c-0.02 0.1 -0.54 0.34 -0.56 0.36 c0.02 0.04 0.04 0.06 0.08 0.08 c-0.58 0 -0.62 0.26 -0.74 0.26 l0.02 0 c0 0.02 -0.2 0.12 -0.64 0.12 c-1.12 0 -1.58 -0.04 -1.88 -0.04 z M55.774 14.76 c0 -0.02 -0.02 -0.02 -0.02 -0.02 c-0.02 0 -0.02 0 -0.02 0.02 s0 0.02 0.02 0.02 c0 0 0.02 0 0.02 -0.02 z M55.454 14.34 c-0.02 0 -0.04 0.02 -0.04 0.02 c0 0.02 0.02 0.04 0.04 0.04 s0.02 -0.02 0.02 -0.04 c0 0 0 -0.02 -0.02 -0.02 z M55.414 13.6 c0 0.08 0.04 0.2 0.1 0.2 c0 -0.08 -0.02 -0.22 -0.06 -0.22 z M55.454 13.1 l0 0.04 l0.04 -0.04 l-0.04 0 z M55.454 11.48 c-0.02 0 -0.04 0 -0.04 0.02 s0.02 0.04 0.04 0.04 s0.02 -0.02 0.02 -0.04 s0 -0.02 -0.02 -0.02 z M53.454 5.42 c0 0.1 0.02 0.1 0.06 0.1 c0.06 0 0.18 -0.02 0.26 -0.02 c-0.02 -0.1 -0.02 -0.16 -0.06 -0.2 c-0.04 0.02 -0.06 0.06 -0.06 0.08 c0 0 -0.08 -0.04 -0.1 -0.04 c-0.1 0.02 -0.1 -0.02 -0.1 0.08 z M54.034000000000006 5.42 c0 0.02 -0.02 0.02 -0.02 0.04 c0 0.04 0.08 0.06 0.1 0.06 l0.2 0 c0 -0.02 0 -0.16 -0.02 -0.16 l-0.22 0 c-0.04 0 -0.06 0.02 -0.06 0.04 z M54.974000000000004 5.42 c-0.02 0 -0.04 0.02 -0.04 0.04 s0.02 0.04 0.04 0.04 s0.02 -0.02 0.02 -0.04 s0 -0.04 -0.02 -0.04 z M55.054 5.359999999999999 l-0.02 0.1 l0.06 -0.08 z M59.914 5.359999999999999 l-0.02 0 c0 0.02 0 0.02 0.02 0.02 s0.02 0 0.02 -0.02 l-0.02 0 z M59.154 5.34 l-0.02 0.02 l0.02 0.02 l0.02 -0.02 z M53.994 5.26 c0 0.06 0.02 0.06 0.04 0.08 c0.02 -0.02 0.1 -0.04 0.12 -0.08 l-0.04 -0.08 c-0.04 0.02 -0.1 0.04 -0.12 0.08 z M59.994 5.26 l0 0.08 l0.06 -0.08 l-0.06 0 z M53.254000000000005 5.220000000000001 c-0.02 0 -0.04 0.02 -0.04 0.04 s0.02 0.04 0.04 0.04 s0.02 -0.02 0.02 -0.04 s0 -0.04 -0.02 -0.04 z M56.194 5.18 c0 0.02 -0.02 0.02 -0.02 0.04 s0.02 0.02 0.06 0.04 l0 -0.08 l-0.04 0 z M55.354000000000006 5.18 l0 0.04 l0.06 0 l0 -0.04 l-0.06 0 z M58.694 5.1 c-0.02 0 -0.02 0.02 -0.02 0.06 c0 0.02 0 0.02 0.02 0.02 s0.02 0 0.02 -0.02 c0 -0.04 0 -0.06 -0.02 -0.06 z M53.614000000000004 5.1 c0 0.02 -0.02 0.02 -0.02 0.04 s0.02 0.02 0.06 0.04 l0.02 -0.08 c0 -0.02 0 -0.04 -0.02 -0.08 c-0.04 0.02 -0.06 0.04 -0.06 0.06 z M58.414 5.1 c-0.02 0 -0.02 0.02 -0.02 0.04 s0 0.04 0.02 0.04 s0.02 -0.02 0.02 -0.04 s0 -0.04 -0.02 -0.04 z M59.794000000000004 5 c0.04 0.1 0.06 0.14 0.1 0.14 c0.02 0 0.02 -0.02 0.02 -0.04 c0 -0.1 -0.08 -0.1 -0.12 -0.1 z M54.154 5.0600000000000005 c-0.02 0 -0.04 0.02 -0.04 0.04 s0.02 0.04 0.04 0.04 s0.02 -0.02 0.02 -0.04 s0 -0.04 -0.02 -0.04 z M54.934000000000005 5.02 c-0.02 0 -0.04 0.02 -0.04 0.04 s0.02 0.04 0.04 0.04 s0.02 -0.02 0.02 -0.04 s0 -0.04 -0.02 -0.04 z M63.87200000000001 19.72 l0 -0.1 l0.24 -0.24 l0.98 0 l0.08 0.04 l0.46 0.04 c0.08 0.04 0.18 -0.26 0.24 -0.26 l0 -2.42 c0 -0.02 -0.04 -0.26 -0.04 -0.28 c0 0 0.04 -0.48 0.04 -0.58 c0.04 -0.06 -0.06 0.08 -0.06 -0.32 c0 -0.04 0.06 -0.08 0.06 -0.16 c0 -0.14 -0.04 -0.22 -0.04 -0.32 c0 -0.04 0.04 -0.18 0.04 -0.26 l0 -1.26 c0 -0.18 -0.06 -0.5 -0.06 -0.74 l0.02 -1.72 c-0.02 -0.08 -0.02 -0.6 -0.02 -0.7 c0 -0.06 0.02 -0.52 0.02 -0.58 c0 -0.02 -0.02 -1.04 -0.02 -1.16 c0 -1.24 0.02 -1.46 0.02 -2 c0 -0.24 0 -0.76 -0.02 -0.92 l-0.12 -0.14 s-0.4 -0.02 -0.56 -0.02 c-0.26 0 -0.46 0.06 -0.7 0.06 c-0.22 -0.04 -0.44 0.12 -0.64 -0.34 c0 -0.18 0.04 -0.4 0.22 -0.44 c4.08 0 4.5 0.04 6.12 0.04 c3.88 0 3.66 -0.04 5.28 -0.04 c0.2 0 0.42 3.66 0.42 3.84 c0 0.02 0.02 0.02 0.02 0.04 c0 0.24 -0.36 0.42 -0.48 0.42 c-0.26 0 -0.4 -0.28 -0.48 -0.6 c0.08 0 -0.86 -1.54 -0.82 -1.46 c-0.26 -0.26 -0.28 -0.3 -0.44 -0.5 c0 -0.18 -0.86 -0.58 -0.96 -0.72 c0 0.02 -0.02 0.02 -0.02 0.02 c-0.06 0 -0.12 -0.24 -0.54 -0.24 c-0.56 0 -0.52 -0.08 -1.38 -0.08 l0 -0.04 l-0.62 0 l-0.04 0.04 l-0.26 0 l0.14 -0.04 c-0.46 0 -0.66 -0.06 -0.78 -0.06 c-0.18 0 -0.4 0.1 -0.4 0.68 c0 1.12 0.04 1.72 0.04 2 c0 0.3 -0.04 1.18 -0.04 1.3 c0 0.34 0.08 0.62 0.08 0.86 c-0.04 0 -0.08 0.14 -0.08 0.2 s0.08 0.44 0.08 0.62 c0 0.04 -0.04 0.1 -0.04 0.12 c0 0.06 -0.06 0.82 0.14 0.82 c0.46 0 0.8 -0.12 1.16 -0.12 l0 0.02 c0.06 0 0.24 -0.3 0.38 -0.3 c0.24 0 0.28 -0.08 0.54 -0.34 l0 0.02 c-0.02 0 0.34 -0.72 0.54 -0.96 c0.34 -0.16 -0.12 -1 0.88 -1 l0.06 0.04 c0 0.18 0.1 0.24 0.1 0.8 c-0.02 0.16 -0.04 0.68 -0.04 0.64 c0 0.22 0.04 0.56 0.04 0.84 c0 0.24 0 0.24 -0.04 0.36 c0 0.2 0.04 0.46 0.04 0.52 c0 0.26 -0.04 0.26 -0.04 0.46 c0 0.16 0.04 1.24 0.04 1.38 c0 0.08 -0.04 0.16 -0.04 0.28 l0 0.74 c0.02 0.02 -0.16 0.16 -0.26 0.16 c-0.64 0 -0.1 -0.12 -0.82 -1.42 c-0.56 -0.98 -0.74 -0.94 -1.06 -1.22 c0.02 0 -0.58 -0.2 -0.72 -0.2 l-0.06 -0.1 l-0.64 -0.02 c-0.3 0.16 -0.26 1 -0.26 0.68 c0 0.08 0.06 0.28 0.06 0.58 c0 0.14 -0.02 0.38 -0.06 0.6 c0 0.02 0.06 0.2 0.06 0.32 c0 0.2 -0.04 0.18 -0.04 0.26 c0 0.14 0.04 0.22 0.04 0.28 c-0.06 0.78 -0.08 2.18 -0.08 2.42 c0 1.26 -0.02 1.36 0.28 1.66 l0.86 0 c0.08 -0.02 0.18 -0.08 0.26 -0.08 c0.02 0 1.2 0.04 1.36 0.04 s0.02 -0.1 0.44 -0.1 c0.76 -0.3 0.72 -0.04 1.36 -0.54 c-0.02 0 -0.02 -0.02 -0.02 -0.02 c0 -0.06 0.5 -0.28 0.76 -0.6 c-0.02 0 -0.02 -0.02 -0.02 -0.02 c0 -0.3 0.88 -0.52 0.88 -1.24 c0 -0.08 0.36 -0.54 0.36 -0.66 c0.5 -1.26 0.18 -1.2 0.82 -1.2 c0.02 0 0.24 0 0.24 0.26 c0 1.3 -0.2 2.9 -0.2 3.8 c0 0.14 0.02 0.28 0.02 0.42 c0 0.24 -0.08 0.44 -0.56 0.44 l-7.7 0 c-1.16 0 -1.58 0.04 -3.72 0.04 c-0.38 -0.12 -0.28 -0.28 -0.28 -0.32 z M64.072 19.8 l0 -0.02 l0 0.06 c0 0.06 0.02 0.14 0.2 0.14 c0.04 0 0.1 0 0.16 -0.02 l0 -0.04 l-0.16 -0.18 c-0.02 0.04 -0.04 0.08 -0.08 0.1 c-0.02 0 -0.08 -0.02 -0.12 -0.06 l0 0.02 z M71.17200000000001 19.88 l0.02 0.04 c0.02 -0.02 0.02 -0.02 0.02 -0.08 z M70.39200000000001 19.84 c-0.06 0 -0.08 0 -0.1 0.04 l0.1 0 l0 -0.04 z M64.772 19.62 c0.04 0 0.12 0.04 0.14 0.04 c0.18 0 0.12 0 0.18 -0.04 c-0.04 0 -0.18 -0.04 -0.2 -0.04 c-0.08 0 -0.08 0 -0.12 0.04 z M75.75200000000001 19.62 c0.02 0.06 0.08 0.04 0.12 0.04 c-0.02 -0.04 -0.06 -0.04 -0.12 -0.04 z M66.31200000000001 19.62 c0 -0.02 -0.02 -0.02 -0.04 -0.02 s-0.04 0 -0.04 0.02 s0.02 0.04 0.04 0.04 s0.04 -0.02 0.04 -0.04 z M64.19200000000001 19.56 l0 0.02 l0.2 0 c-0.04 -0.02 -0.16 -0.02 -0.2 -0.02 z M66.03200000000001 16.9 l-0.02 -0.02 c-0.02 0 -0.02 0.02 -0.02 0.02 c0 0.02 0 0.04 0.02 0.04 c0 0 0.02 -0.02 0.02 -0.04 z M65.992 16.04 l0 0.08 c0.02 0 0.02 -0.02 0.02 -0.04 s0 -0.04 -0.02 -0.04 z M66.03200000000001 15.92 c0.02 0.04 0.06 0.04 0.12 0.04 c0 -0.04 0.02 -0.16 -0.04 -0.2 c0 0.04 -0.08 0.1 -0.08 0.16 z M66.152 15.54 c0 0.02 0 0.04 0.02 0.06 l0.02 -0.06 l-0.04 0 z M76.152 15.54 c-0.02 0 -0.04 0.02 -0.04 0.04 c0 0 0.02 0.02 0.04 0.02 s0.02 -0.02 0.02 -0.02 c0 -0.02 0 -0.04 -0.02 -0.04 z M76.25200000000001 15.5 c-0.02 0 -0.02 0.02 -0.02 0.04 c0 0 0 0.02 0.02 0.02 l0 -0.06 z M66.03200000000001 12.48 c-0.02 0 -0.04 0.02 -0.04 0.04 c0 0 0.02 0.02 0.04 0.02 s0.02 -0.02 0.02 -0.02 c0 -0.02 0 -0.04 -0.02 -0.04 z M66.17200000000001 12.48 c0 -0.02 0 -0.02 -0.02 -0.02 l0 0.04 c0.02 0 0.02 0 0.02 -0.02 z M66.03200000000001 11.6 l-0.02 -0.02 c-0.02 0 -0.02 0.02 -0.02 0.02 c0 0.02 0 0.04 0.02 0.04 c0 0 0.02 -0.02 0.02 -0.04 z M72.412 9.92 c0 -0.02 -0.02 -0.02 -0.04 -0.02 c0 0 -0.02 0 -0.02 0.02 s0.02 0.04 0.02 0.04 c0.02 0 0.04 -0.02 0.04 -0.04 z M75.25200000000001 8.96 c-0.02 0 -0.04 0.02 -0.04 0.04 c0 0 0.02 0.02 0.04 0.02 s0.02 -0.02 0.02 -0.02 c0 -0.02 0 -0.04 -0.02 -0.04 z M68.292 7.960000000000001 c-0.02 0.02 -0.02 0.06 -0.02 0.08 l0.22 0 c-0.02 -0.04 -0.1 -0.08 -0.2 -0.08 z M65.992 7.18 l0 0.08 c0.02 0 0.02 -0.02 0.02 -0.04 s0 -0.04 -0.02 -0.04 z M65.992 6.16 l0 0.08 c0.02 0 0.02 -0.02 0.02 -0.04 s0 -0.04 -0.02 -0.04 z M75.45200000000001 5.42 l0 0.2 l0.02 -0.1 c0 -0.04 0 -0.06 -0.02 -0.1 z M65.292 5.539999999999999 c-0.02 0 -0.02 0.02 -0.02 0.04 s0 0.04 0.02 0.04 s0.02 -0.02 0.02 -0.04 s0 -0.04 -0.02 -0.04 z M66.97200000000001 5.58 c0 -0.02 -0.02 -0.02 -0.02 -0.02 c-0.02 0 -0.02 0 -0.02 0.02 s0 0.04 0.02 0.04 c0 0 0.02 -0.02 0.02 -0.04 z M64.73200000000001 5.380000000000001 c-0.18 0 -0.08 0.14 -0.14 0.16 c0.12 0 0.14 -0.02 0.14 -0.06 c0 -0.02 -0.02 -0.04 -0.02 -0.06 s0.02 -0.02 0.02 -0.04 z M65.212 5.48 l0.06 0.04 l0.02 -0.04 l-0.04 -0.02 z M64.33200000000001 5.42 c-0.02 0 -0.02 0.02 -0.02 0.04 c0 0 0 0.02 0.02 0.02 s0.02 -0.02 0.02 -0.02 c0 -0.02 0 -0.04 -0.02 -0.04 z M64.53200000000001 5.34 l-0.14 0.04 l0.14 0 l0 -0.04 z M66.31200000000001 5.34 c-0.02 0 -0.04 0.02 -0.04 0.02 c0 0.02 0.02 0.02 0.04 0.02 c0 0 0.02 0 0.02 -0.02 z M68.33200000000001 5.34 l0 0.04 l0.02 0 z M64.632 5.34 l-0.04 0 c0 0.02 0 0.04 0.02 0.04 c0 0 0.02 -0.02 0.02 -0.04 z M65.09200000000001 5.32 c-0.04 0 -0.04 0.04 -0.04 0.04 c0.02 0 0.02 -0.02 0.04 -0.04 z M65.95200000000001 5.34 l-0.04 0 c0 0.02 0 0.04 0.02 0.04 c0 0 0.02 -0.02 0.02 -0.04 z M69.212 5.32 c-0.04 0 -0.08 0.02 -0.12 0.02 l0.14 0 z M64.03200000000001 5.32 c0 0 0 -0.02 -0.02 -0.02 l0 0.04 c0.02 0 0.02 0 0.02 -0.02 z M70.072 5.26 c0 0.08 0.02 0.04 0.04 0.06 c0 0 0.02 0 0.04 -0.02 l-0.04 -0.08 z M75.37200000000001 5.0600000000000005 l0 0.24 l0.04 0 c0 -0.06 0.02 -0.24 -0.04 -0.24 z M64.852 5.1 c-0.02 0 -0.04 0.02 -0.04 0.02 c0 0.02 0.02 0.02 0.04 0.02 s0.02 0 0.02 -0.02 c0 0 0 -0.02 -0.02 -0.02 z M64.19200000000001 5.1 l-0.02 -0.04 z M64.432 5.02 c-0.04 0.02 -0.06 0.04 -0.06 0.06 l0.02 0.02 l0.04 0 l0 -0.08 z M85.01 19.76 c-0.02 0 -0.16 -0.02 -0.18 -0.02 c-0.9 -0.56 -1.08 -0.58 -1.46 -0.74 c0 -0.36 -0.4 -0.24 -0.54 -0.46 c0 -0.14 -0.66 -0.36 -0.66 -0.68 c-0.34 -0.04 -0.18 -0.44 -0.44 -0.54 c0.04 -0.06 -0.42 -0.3 -0.42 -0.56 c0 -0.24 -0.52 -0.8 -0.52 -1.02 c0 -0.28 -0.46 -1.04 -0.46 -1.52 c-0.02 0 -0.24 -1.06 -0.24 -1.42 c0 -0.48 0.06 -0.9 0.06 -1.24 c0 0 0.36 -1.28 0.36 -1.46 c-0.02 0 -0.04 -0.02 -0.04 -0.04 c0 -0.1 0.3 -0.28 0.3 -0.62 c0.22 -0.66 -0.1 0.06 0.38 -0.92 c0.26 0 -0.02 -0.14 0.42 -0.58 l0 0.04 c0.02 0 0.02 -0.48 0.32 -0.48 c0 -0.02 0.2 -0.54 0.68 -0.84 c0.04 0 0.1 -0.26 0.18 -0.26 c1.2 -1 0.96 -0.66 1.42 -1.12 l0 0.04 c0.08 0 0.52 -0.32 0.62 -0.32 c0 0 0.4 -0.34 1.02 -0.34 c0.04 0 0.06 0.02 0.06 0.02 c0.1 0 -0.22 -0.24 1.62 -0.24 c0.76 0 0.7 0.16 1.3 0.16 c-0.02 0 -0.02 -0.02 -0.02 -0.02 c0.02 0 0.26 0.22 0.38 0.22 l0.62 0.08 l0.2 0.16 l0 0.04 c0.08 0 0.6 0.24 0.64 0.24 c0.02 0.02 0.02 0.04 0.04 0.04 c0.06 0 0.12 -0.14 0.3 -0.2 c0.5 -0.06 0 -0.32 0.96 -0.32 c-0.2 0.1 0.26 -0.16 0.26 0.32 c0 0.92 0.08 1.52 0.08 2.52 c0 0.16 -0.04 0.24 -0.04 0.34 c0 0.08 0.12 0.38 0.12 1.1 c0 0.32 -0.1 0.18 -0.2 0.28 l-0.52 0 c-0.06 0 -0.36 -0.48 -0.38 -0.6 l0 -0.02 c-0.04 0 -0.1 -0.38 -0.26 -0.56 c-0.02 0 -0.14 -0.64 -0.44 -1.06 c0 -0.04 -0.44 -0.44 -0.44 -0.54 c0.02 0 0.02 0 0.02 -0.02 c0 -0.06 -0.38 -0.28 -0.4 -0.34 c0.02 -0.26 -0.56 -0.36 -0.56 -0.6 c-0.2 0 -0.5 -0.54 -1.56 -0.54 c-1.3 0 -1.64 0.06 -2.08 0.32 c0 0.14 -0.6 0.08 -0.6 0.44 c-0.02 0 -0.22 0.14 -0.26 0.14 c-0.06 0.06 -0.08 0.06 -0.08 0.08 s0.02 0.02 0.02 0.06 l0 0 c-0.04 0 -0.74 1.22 -0.74 1.78 c0 0.08 -0.1 0.54 -0.12 0.56 l-0.06 0.82 l-0.04 0.04 l0 0.42 c-0.06 0 -0.12 0.76 -0.12 0.94 c0 0 0 0.1 0.02 0.28 c0 0 -0.02 0.18 -0.02 0.36 c0 0.2 0 0.46 0.02 0.54 c-0.02 0.04 -0.02 0.08 -0.02 0.12 c0 0.1 0.02 0.32 0.02 0.46 c-0.02 0.02 -0.02 0.06 -0.02 0.12 c0 0.14 0.02 0.36 0.02 0.5 c0 0.26 -0.02 0.26 -0.02 0.4 s0 0.26 0.08 0.4 c0 0.14 0 0.14 -0.02 0.2 l0.02 0.08 c0 0.24 0.02 0.36 -0.02 0.4 c0.06 1.82 0.42 3.14 0.72 3.28 c0 0.14 -0.16 0.1 0.72 0.98 c0 0 0.42 0.48 0.88 0.48 l-0.02 -0.02 c0.02 0 0.24 0.2 0.86 0.2 c1.52 0 1.64 0.04 2.02 -0.34 c0.12 -0.1 0.5 -0.14 0.56 -0.16 c0.34 -0.54 0.36 -0.24 0.56 -0.56 c-0.04 -0.12 0.46 -0.46 0.72 -0.8 c0 0 0.1 -0.62 0.38 -0.88 l-0.02 0.02 l0 -0.02 c0 -0.06 0.4 -0.8 0.48 -0.86 c0 0.04 0 0.04 0.02 0.04 s0.1 -0.7 0.48 -0.7 c0.02 0.02 0.04 0.02 0.04 0.02 c0.06 0 0.08 -0.04 0.16 -0.04 c0.06 0 0.16 0.04 0.36 0.22 c0 1.22 -0.12 1.74 -0.12 2.44 c0 0.1 0.02 0.18 0.02 0.22 l-0.02 1.38 c-0.04 0.16 -0.04 0.44 -0.34 0.44 c-0.94 0 -0.1 -0.04 -1.26 -0.52 c-0.08 0 -0.36 0.14 -0.52 0.14 c0 -0.02 -0.02 -0.02 -0.04 -0.02 c-0.1 0 -0.36 0.38 -0.56 0.38 c0.04 0 -1.18 0.02 -1.44 0.24 c-0.18 0 -0.34 -0.04 -0.56 -0.04 c0 0.08 -0.5 0 -0.48 0.08 c-0.86 0 -1.16 -0.24 -1.62 -0.24 c-0.22 0 -0.54 -0.02 -0.54 -0.18 z M87.89000000000001 19.98 c-0.02 0 -0.04 0.02 -0.04 0.04 s0.02 0.04 0.04 0.04 l0 -0.08 z M87.85000000000001 19.94 c-0.02 0 -0.04 0.02 -0.04 0.04 s0.02 0.04 0.04 0.04 s0.02 -0.02 0.02 -0.04 s0 -0.04 -0.02 -0.04 z M86.05000000000001 19.92 l0.06 0.02 l0.02 -0.02 l-0.08 0 z M85.65 19.82 c-0.02 0 -0.02 0.02 -0.02 0.04 s0 0.04 0.02 0.04 s0.02 -0.02 0.02 -0.04 s0 -0.04 -0.02 -0.04 z M85.01 19.6 l0 0.04 l0.02 0 z M92.05000000000001 19.54 c-0.02 0 -0.02 0.02 -0.02 0.02 l0.04 0 c0 0.02 0 -0.02 -0.02 -0.02 z M92.17000000000002 17.2 c0 0 0 -0.02 -0.02 -0.02 c0 0 -0.04 0.02 -0.04 0.04 c0.06 0 0.06 0 0.06 -0.02 z M92.21000000000001 17.12 c0 -0.02 -0.02 -0.02 -0.02 -0.02 c-0.02 0 -0.02 0 -0.02 0.02 s0 0.04 0.02 0.04 c0 0 0.02 -0.02 0.02 -0.04 z M81.23 16.22 c-0.02 -0.02 -0.08 0.04 -0.08 0.1 c0.1 0 0.08 -0.02 0.08 -0.1 z M92.25000000000001 15.52 c0 0.02 -0.02 0.04 -0.02 0.08 s0.02 0.08 0.06 0.08 l0.04 -0.04 c0 -0.06 0.02 -0.12 -0.08 -0.12 z M91.77000000000001 15.52 c0 0 0.04 0.1 0.08 0.12 c0 -0.06 0 -0.16 0.2 -0.16 c-0.02 -0.02 -0.02 -0.04 -0.06 -0.04 c-0.1 0 -0.14 0.08 -0.22 0.08 z M80.83000000000001 15.059999999999999 l0.04 -0.02 z M80.51 14.18 c-0.06 0 -0.04 0.16 -0.04 0.2 s0 0.04 0.02 0.04 c0.04 0 0.08 -0.02 0.08 -0.04 l0 -0.16 s-0.04 -0.04 -0.06 -0.04 z M80.41000000000001 13.98 c0.04 0 0.02 0.04 0.12 0.04 c0 0 0.02 0 0.08 -0.02 c-0.04 -0.02 -0.16 -0.02 -0.2 -0.02 z M80.47000000000001 12.379999999999999 c0 -0.02 0 -0.02 -0.02 -0.02 l0 0.06 c0.02 0 0.02 -0.02 0.02 -0.04 z M80.45 11.52 l0.02 0.04 c0.04 -0.02 0.06 -0.02 0.06 -0.08 z M80.73 10.26 c-0.1 0 -0.1 0.06 -0.1 0.08 c0.06 -0.02 0.12 -0.04 0.14 -0.08 l-0.04 0 z M80.79 10.02 c-0.02 0 -0.02 0 -0.02 0.02 c0 0 0 0.02 0.02 0.02 s0.02 -0.02 0.02 -0.02 c0 -0.02 0 -0.02 -0.02 -0.02 z M80.79 9.78 c-0.02 0 -0.02 0.02 -0.02 0.04 s0 0.02 0.02 0.02 s0.02 0 0.02 -0.02 s0 -0.04 -0.02 -0.04 z M82.67 6.84 c-0.02 0 -0.02 0.02 -0.02 0.02 c0 0.04 0.06 0.12 0.1 0.12 l0 -0.22 c-0.08 0 -0.08 0.02 -0.08 0.08 z M90.83000000000001 6.779999999999999 c-0.02 0 -0.02 0.02 -0.02 0.04 c0 0 0 0.02 0.02 0.02 s0.02 -0.02 0.02 -0.02 c0 -0.02 0 -0.04 -0.02 -0.04 z M91.97000000000001 5.619999999999999 l0.04 0.04 l0 -0.04 l-0.04 0 z M84.95 5.16 c-0.08 0.04 -0.06 0.08 -0.06 0.12 c0.08 -0.02 0.06 -0.06 0.06 -0.12 z M85.35000000000001 5.199999999999999 c0 0.04 0 0.06 0.02 0.06 l0.02 -0.02 l0 -0.04 l-0.04 0 z M85.59 5.24 c0 -0.02 -0.02 -0.02 -0.02 -0.02 c-0.02 0 -0.02 0 -0.02 0.02 s0 0.04 0.02 0.04 c0 0 0.02 -0.02 0.02 -0.04 z M85.23 5.08 c-0.02 0 -0.04 0.02 -0.04 0.04 s0.02 0.04 0.04 0.04 s0.02 -0.02 0.02 -0.04 s0 -0.04 -0.02 -0.04 z M88.33000000000001 4.84 c0.02 0.06 0.04 0.1 0.1 0.12 c-0.02 0 0 -0.12 -0.02 -0.14 c-0.06 0 -0.06 0.02 -0.08 0.02 z M85.63000000000001 4.84 l0 0.04 l0.02 0 z M85.75000000000001 4.82 c-0.02 0 -0.02 0.02 -0.02 0.04 c0 0 0 0.02 0.02 0.02 s0.02 -0.02 0.02 -0.02 c0 -0.02 0 -0.04 -0.02 -0.04 z M86.05000000000001 4.82 l0 0.02 l0.12 0 z M99.76800000000001 20.1 c0 -0.04 0 -0.08 0.02 -0.12 c0 -0.04 -0.02 -0.08 -0.04 -0.08 c0 0.08 -0.1 0.16 -0.12 0.16 c-0.08 -0.08 -0.18 -0.16 -0.22 -0.26 c0 -0.66 1.82 -0.18 2.14 -0.52 l-0.04 -1.88 l0 -4.78 l0.04 -0.04 c0 -0.74 -0.08 -1.34 -0.08 -2 c0 -1.02 0.08 -2.7 0.08 -3.34 c0 -0.92 -0.02 -1.3 -0.26 -1.64 l-0.24 0 l0 0.08 c-1.16 0 -0.92 0.18 -1.38 0.38 c0.04 0 -0.5 0.06 -0.5 0.32 l0.02 0.02 c0 0.04 -0.46 0.04 -0.46 0.34 c-0.46 0 -0.96 1.26 -1.18 1.48 c0 0.18 -0.42 0.62 -0.42 1.02 l0 -0.02 s-0.02 0.76 -0.42 0.76 c-0.32 0 -0.44 0.02 -0.52 -0.22 c0 -1.58 0.24 -0.94 0.24 -4.56 c4.82 -0.24 9.5 -0.26 11.84 -0.26 c0.34 0 0.64 0.02 0.88 0.02 c0.1 0 0.38 -0.1 0.38 0.6 c0 0.16 0 0.12 -0.04 0.18 c0.08 0.38 -0.02 1.02 0.14 1.42 c-0.02 0.02 -0.06 0.2 -0.06 0.3 c0 0.32 0.18 1.2 0.18 1.94 c0 0.5 -0.16 0.52 -0.48 0.52 c-0.22 0 -0.64 -1.1 -0.74 -1.42 c0.18 0.02 -0.22 -0.02 -0.22 -0.4 c-0.46 -0.62 -0.3 -0.6 -0.68 -0.98 c-0.32 -0.64 -0.46 -0.4 -0.74 -0.7 l0 0.02 c0.02 0 -0.16 -0.38 -0.54 -0.38 c-0.02 -0.18 -0.24 -0.08 -0.32 -0.26 c-0.72 -0.04 -0.66 -0.24 -0.88 -0.24 l-0.06 0.02 c-0.42 0 -0.28 0 -0.4 -0.02 c-0.04 0 -0.08 0.02 -0.08 0.02 c0 0.02 0.02 0.04 0.02 0.04 c0 0.1 -0.22 0.04 -0.22 0.5 c0 0.74 0.06 2.58 0.06 4.62 l0 3.8 c0 0.04 -0.04 0.22 -0.04 0.24 c0 -0.02 0 0.1 0.04 0.16 c0 0.1 0.04 1.72 0.04 1.98 c0 0.52 -0.04 1.12 -0.04 1.52 c0 0.44 0.02 0.9 0.16 0.96 c0.98 0 1 -0.04 1.46 -0.04 c0.12 0 0.38 0.04 0.38 0.4 c0 0.14 -0.16 0.26 -0.28 0.34 c-0.18 0 -0.6 -0.16 -0.86 -0.16 c-0.12 0 -0.2 0.06 -0.28 0.06 c-0.16 -0.02 -0.32 -0.06 -0.44 -0.06 l-0.04 0.04 c-0.18 0 -0.4 0.06 -0.5 0.06 c-0.04 0 -0.1 -0.04 -0.16 -0.04 c-0.02 0 -0.08 0.02 -0.16 0.06 c-0.2 0 -0.42 0 -0.44 -0.06 l-1.04 0 s-0.04 0.06 -0.08 0.06 c0.08 -0.02 -0.12 0.06 -0.12 -0.06 c-0.16 0 -0.28 0.08 -0.48 0.08 c-0.14 0 -0.24 -0.02 -0.3 -0.1 l0.06 -0.04 l-0.34 0 c0 0.08 0 0.16 -0.04 0.2 l-0.04 -0.08 c-0.08 0 -0.08 0.1 -0.14 0.1 c-0.08 0 -0.2 -0.12 -0.22 -0.12 l0.08 -0.06 c0 -0.06 0 -0.08 -0.04 -0.1 l0 0.02 c-0.02 0 -0.04 -0.02 -0.08 -0.02 s-0.1 0.02 -0.12 0.1 l0.04 0.12 l-0.04 0.04 l-0.62 0 z M99.668 19.94 c-0.02 0 -0.04 0.02 -0.04 0.02 c0 0.02 0.02 0.02 0.04 0.02 s0.02 0 0.02 -0.02 c0 0 0 -0.02 -0.02 -0.02 z M101.44800000000001 19.9 c-0.02 0 -0.04 0.02 -0.04 0.04 s0.02 0.04 0.04 0.04 c0 0 0.02 -0.02 0.02 -0.04 s-0.02 -0.04 -0.02 -0.04 z M99.608 19.88 l0 0.02 l0.02 0 z M102.028 19.88 l-0.04 0.02 l0.08 0 z M101.828 19.88 c0 -0.02 -0.02 -0.02 -0.04 -0.02 s-0.04 0 -0.04 0.02 s0.02 0.02 0.04 0.02 s0.04 0 0.04 -0.02 z M102.26800000000001 19.88 l0 -0.02 c-0.02 0 -0.02 0 -0.02 0.02 s0 0.02 0.02 0.02 l0 -0.02 z M102.40800000000002 19.8 c-0.02 0 -0.04 0.02 -0.04 0.04 s0.02 0.04 0.04 0.04 s0.02 -0.02 0.02 -0.04 s0 -0.04 -0.02 -0.04 z M104.62800000000001 19.8 l0 0.04 l0.1 0 c-0.02 -0.04 -0.06 -0.04 -0.1 -0.04 z M105.668 19.8 l-0.04 0.04 l0.04 0 l0 -0.04 z M105.86800000000001 19.78 c-0.04 0 -0.04 0.04 -0.04 0.06 l0.04 0 l0 -0.06 z M99.56800000000001 19.68 c0 0.04 0 0.08 0.06 0.08 s0.12 -0.02 0.12 -0.04 c0 -0.14 -0.02 -0.1 -0.12 -0.16 c-0.06 0.04 -0.06 0.04 -0.06 0.12 z M100.22800000000001 19.68 c-0.04 0.02 -0.1 0.04 -0.1 0.06 s0.04 0.02 0.06 0.02 c0.04 0 0.06 0 0.06 -0.04 z M100.608 19.64 c-0.06 0.04 -0.04 0.08 -0.04 0.12 l0.2 0 c-0.04 -0.06 -0.14 -0.06 -0.16 -0.12 z M101.28800000000001 19.76 c0 -0.02 -0.02 -0.02 -0.04 -0.02 s-0.04 0 -0.04 0.02 s0.02 0.02 0.04 0.02 s0.04 0 0.04 -0.02 z M105.50800000000001 19.76 l0.02 -0.04 z M101.72800000000001 19 c0 0 -0.02 0.02 -0.02 0.04 s0.02 0.04 0.02 0.04 s0.02 -0.02 0.02 -0.04 s-0.02 -0.04 -0.02 -0.04 z M104.40800000000002 15.559999999999999 c-0.02 0 -0.04 0.02 -0.04 0.04 s0.02 0.04 0.04 0.04 s0.02 -0.02 0.02 -0.04 s0 -0.04 -0.02 -0.04 z M101.668 12.14 c-0.02 0 -0.04 0.02 -0.04 0.04 s0.02 0.04 0.04 0.04 s0.02 -0.02 0.02 -0.04 s0 -0.04 -0.02 -0.04 z M96.808 9.8 c-0.02 0 -0.04 0.02 -0.04 0.04 c0 0 0.02 0.02 0.04 0.02 s0.02 -0.02 0.02 -0.02 c0 -0.02 0 -0.04 -0.02 -0.04 z M109.528 9.6 c-0.16 0.02 -0.16 0.2 -0.16 0.24 c0.12 -0.12 0.16 -0.12 0.16 -0.24 z M96.86800000000001 9.54 l0 0.14 c0.02 -0.02 0.02 -0.1 0.02 -0.14 l-0.02 0 z M109.00800000000001 9.52 l0 0.02 l0.08 0 z M109.528 9.12 l0 0.04 l0.02 0 z M96.50800000000001 7.84 c0 0 -0.02 0.04 -0.02 0.08 l0.02 0.04 c0.02 0 0.02 -0.04 0.02 -0.06 s0 -0.04 -0.02 -0.06 z M109.28800000000001 7.9 l-0.02 0.02 c0 0.02 0.02 0.04 0.02 0.04 c0.02 0 0.02 -0.02 0.02 -0.04 c0 0 0 -0.02 -0.02 -0.02 z M96.50800000000001 7.74 c0 0 -0.02 0 -0.02 0.02 s0.02 0.04 0.02 0.04 c0.02 0 0.02 -0.02 0.02 -0.04 s0 -0.02 -0.02 -0.02 z M96.56800000000001 6.1 c-0.04 0.02 -0.06 0.04 -0.08 0.08 c0.08 0 0.08 -0.02 0.08 -0.08 z M98.92800000000001 5.9399999999999995 c-0.02 0 -0.04 0 -0.04 0.02 s0.02 0.04 0.04 0.04 s0.02 -0.02 0.02 -0.04 s0 -0.02 -0.02 -0.02 z M99.00800000000001 5.74 c0 0 -0.02 0 0.04 0.06 c0.02 -0.02 0.04 -0.04 0.04 -0.06 l-0.08 0 z M99.608 5.640000000000001 c-0.02 0 -0.04 0.02 -0.04 0.04 s0.02 0.04 0.04 0.04 c0 0 0.02 -0.02 0.02 -0.04 s-0.02 -0.04 -0.02 -0.04 z M100.56800000000001 5.48 c0 0.02 -0.06 0.1 -0.1 0.12 l0.14 0 c0 -0.04 0.02 -0.08 -0.04 -0.12 z M101.40800000000002 5.48 l0 0.04 l0.04 -0.04 l-0.04 0 z M98.92800000000001 5.4 c-0.02 0 -0.04 0.02 -0.04 0.04 s0.02 0.04 0.04 0.04 s0.02 -0.02 0.02 -0.04 s0 -0.04 -0.02 -0.04 z M99.028 5.4 c-0.02 0.02 -0.02 0.02 -0.02 0.04 c0 -0.02 0.02 -0.04 0.02 -0.04 z M99.54800000000002 5.359999999999999 l0 0.08 l0.02 -0.04 z M100.06800000000001 5.4 c-0.02 0 -0.04 0.02 -0.04 0.02 c0 0.02 0.02 0.02 0.04 0.02 c0 0 0.02 0 0.02 -0.02 z M106.40800000000002 5.4 l0 0.04 s0.08 0.04 0.08 -0.04 l-0.08 0 z M96.50800000000001 5.4 l0.06 0 l-0.02 0 c0.06 0 0.14 -0.04 0.18 -0.04 c0 0.02 -0.04 -0.14 -0.08 -0.16 c-0.1 0 -0.1 0.14 -0.14 0.2 z M97.248 5.359999999999999 c-0.02 0 -0.02 0.02 -0.02 0.04 l0.04 0 c0 -0.02 0 -0.04 -0.02 -0.04 z M105.90800000000002 5.359999999999999 c0.04 0.04 0.08 0.04 0.12 0.04 c-0.02 -0.04 -0.06 -0.04 -0.12 -0.04 z M106.64800000000001 5.279999999999999 c-0.02 0 -0.02 0.02 -0.02 0.04 s0 0.04 0.02 0.04 s0.02 -0.02 0.02 -0.04 s0 -0.04 -0.02 -0.04 z M109.20800000000001 5.119999999999999 l0.04 0.04 l0 -0.04 l-0.04 0 z"></path></g><g id="SvgjsG3411" featurekey="inlineSymbolFeature-0" transform="matrix(0.6855944395065308,0,0,0.6855944395065308,150.65792979245433,-6.693201026502901)" fill="#111111"><title xmlns="http://www.w3.org/2000/svg">etc</title><path xmlns="http://www.w3.org/2000/svg" d="M50.2,38.86H49.78A4.74,4.74,0,0,0,45,44l0.21,2.87a4.74,4.74,0,0,0,9.46,0L54.94,44A4.74,4.74,0,0,0,50.2,38.86Zm2.52,7.82a2.74,2.74,0,0,1-5.47,0L47,43.81a2.74,2.74,0,0,1,2.74-2.95H50.2a2.75,2.75,0,0,1,2.74,2.95Z"></path><path xmlns="http://www.w3.org/2000/svg" d="M50,11.84a5.22,5.22,0,0,1,5.18,4.75c0.69,0.11,1.37.24,2,.39a7.22,7.22,0,0,0-14.44,0q1-.22,2-0.38A5.22,5.22,0,0,1,50,11.84Z"></path><path xmlns="http://www.w3.org/2000/svg" d="M24.84,72.47a5.2,5.2,0,0,1-5.67-8.69h0c-0.28-.63-0.54-1.27-0.79-1.92A7.23,7.23,0,0,0,26.27,74Q25.53,73.24,24.84,72.47Z"></path><path xmlns="http://www.w3.org/2000/svg" d="M73.58,71.14a5.22,5.22,0,0,1,4.08-8.47,5.16,5.16,0,0,1,1.32.18s0,0,0-.07c0.26-.59.5-1.2,0.73-1.8a7.25,7.25,0,0,0-7.53,2.2L63.43,57.5a15.32,15.32,0,0,0,0-15l8.77-5.68a7.17,7.17,0,0,0,3.95,2.34,7.31,7.31,0,0,0,1.53.16,7.23,7.23,0,1,0-6.56-4.18l-8.78,5.68A15.38,15.38,0,0,0,51,34.66V24.21A7.24,7.24,0,0,0,57,19c-0.66-.15-1.32-0.28-2-0.39a5.19,5.19,0,0,1-10,0c-0.67.1-1.33,0.23-2,.38a7.24,7.24,0,0,0,6,5.26V34.66a15.38,15.38,0,0,0-11.35,6.16L28.9,35.15a7.21,7.21,0,1,0-6.56,4.18,7.31,7.31,0,0,0,1.53-.16,7.17,7.17,0,0,0,3.95-2.34l8.74,5.66a15.32,15.32,0,0,0,0,15l-8.73,5.65A7.25,7.25,0,0,0,20.2,61c0.23,0.63.48,1.25,0.76,1.86a5.16,5.16,0,0,1,1.39-.2,5.27,5.27,0,0,1,1.1.12,5.2,5.2,0,0,1,2.93,8.41c0.45,0.5.93,1,1.41,1.46a7.25,7.25,0,0,0,1.11-7.81l8.74-5.66a15.51,15.51,0,0,0,4,3.74,1,1,0,0,0,.14.09A15.29,15.29,0,0,0,49,65.37V75.79a7.23,7.23,0,1,0,2,0V65.37A15.28,15.28,0,0,0,58.18,63a1,1,0,0,0,.21-0.13,15.51,15.51,0,0,0,3.94-3.73l8.77,5.68a7.25,7.25,0,0,0,1.07,7.75C72.65,72.13,73.13,71.65,73.58,71.14ZM72.54,31a5.22,5.22,0,1,1,8.25,5.24,1,1,0,0,1-1.75.87A5.21,5.21,0,0,1,72.54,31ZM26.74,34.94A5.16,5.16,0,0,1,20.9,37.1a1,1,0,0,1-1.78-.88l0,0A5.21,5.21,0,1,1,26.74,34.94Zm28.49,48A5.23,5.23,0,1,1,50,77.71,5.23,5.23,0,0,1,55.23,82.93Zm3.59-22.87V58.15a1,1,0,0,0,0-.2c-0.5-2.39-2.27-3.39-4-4.37a16,16,0,0,1-2.09-1.33,1,1,0,0,0-1.24,1.57,17.63,17.63,0,0,0,2.35,1.51c1.69,1,2.67,1.57,3,2.94v3.26a13.28,13.28,0,0,1-13.68,0V58.26c0.32-1.37,1.31-2,3-2.94a17.63,17.63,0,0,0,2.35-1.51,1,1,0,0,0-1.24-1.57,16,16,0,0,1-2.09,1.33c-1.71,1-3.49,2-4,4.37a1,1,0,0,0,0,.2v1.92a13.34,13.34,0,0,1-2.43-17.29l0-.05s0,0,0-.06A13.39,13.39,0,1,1,58.82,60.06Z"></path><path xmlns="http://www.w3.org/2000/svg" d="M81.57,61.83l0,0c-0.23.6-.46,1.19-0.72,1.78a1,1,0,0,1-.08.12,5.2,5.2,0,0,1-5.64,8.72c-0.46.51-.94,1-1.43,1.49l0,0A7.23,7.23,0,1,0,81.57,61.83Z"></path><path xmlns="http://www.w3.org/2000/svg" d="M20.2,61a31.59,31.59,0,0,1-1.28-4.34,1,1,0,0,0-2,.42,33.58,33.58,0,0,0,1.42,4.78l0,0A7.19,7.19,0,0,1,20.2,61Z"></path><path xmlns="http://www.w3.org/2000/svg" d="M42.78,17a33.57,33.57,0,0,0-3.28.88,1,1,0,1,0,.62,1.9c1-.31,1.93-0.57,2.91-0.79a7.19,7.19,0,0,1-.25-1.89S42.78,17,42.78,17Z"></path><path xmlns="http://www.w3.org/2000/svg" d="M57,19c0.93,0.21,1.86.45,2.76,0.75a1,1,0,0,0,.31,0,1,1,0,0,0,.31-2c-1-.33-2.07-0.61-3.12-0.84,0,0,0,.06,0,0.08A7.19,7.19,0,0,1,57,19Z"></path><path xmlns="http://www.w3.org/2000/svg" d="M65.79,22.42a32,32,0,0,1,5.37,3.9,1,1,0,0,0,1.34-1.49,34,34,0,0,0-5.71-4.14A1,1,0,0,0,65.79,22.42Z"></path><path xmlns="http://www.w3.org/2000/svg" d="M72.17,72.61c-0.3.29-.6,0.59-0.91,0.87A1,1,0,0,0,72.6,75c0.37-.33.72-0.68,1.07-1A7.19,7.19,0,0,1,72.17,72.61Z"></path><path xmlns="http://www.w3.org/2000/svg" d="M81.77,42.09A1,1,0,0,0,81,43.27a32,32,0,0,1,.7,6.6,1,1,0,0,0,1,1h0a1,1,0,0,0,1-1,34,34,0,0,0-.75-7A1,1,0,0,0,81.77,42.09Z"></path><path xmlns="http://www.w3.org/2000/svg" d="M18.12,42.15a1,1,0,0,0-1.19.77,34,34,0,0,0-.73,7v0.11a1,1,0,0,0,2,0V49.94a31.94,31.94,0,0,1,.69-6.6A1,1,0,0,0,18.12,42.15Z"></path><path xmlns="http://www.w3.org/2000/svg" d="M65.9,77.39a31.66,31.66,0,0,1-6.05,2.72,1,1,0,1,0,.62,1.9,33.61,33.61,0,0,0,6.43-2.89A1,1,0,1,0,65.9,77.39Z"></path><path xmlns="http://www.w3.org/2000/svg" d="M26.28,74h0c0.39,0.38.78,0.76,1.19,1.12a1,1,0,0,0,1.33-1.49c-0.34-.31-0.67-0.62-1-0.95A7.19,7.19,0,0,1,26.28,74Z"></path><path xmlns="http://www.w3.org/2000/svg" d="M40.24,80.17a31.59,31.59,0,0,1-6.07-2.68,1,1,0,0,0-1,1.73,33.61,33.61,0,0,0,6.45,2.85A1,1,0,1,0,40.24,80.17Z"></path><path xmlns="http://www.w3.org/2000/svg" d="M28,26.61a1,1,0,0,0,.67-0.26,31.87,31.87,0,0,1,5.36-3.91,1,1,0,1,0-1-1.73,33.9,33.9,0,0,0-5.7,4.15A1,1,0,0,0,28,26.61Z"></path><path xmlns="http://www.w3.org/2000/svg" d="M83,56.88a1,1,0,1,0-2-.41A31.5,31.5,0,0,1,79.72,61a7.19,7.19,0,0,1,1.82.84A33.47,33.47,0,0,0,83,56.88Z"></path><path xmlns="http://www.w3.org/2000/svg" d="M55.23,17.07A5.16,5.16,0,0,1,55,18.59c0.67,0.11,1.33.24,2,.39a7.19,7.19,0,0,0,.26-1.91s0-.06,0-0.08c-0.68-.15-1.36-0.28-2-0.39C55.19,16.75,55.23,16.9,55.23,17.07Z"></path><path xmlns="http://www.w3.org/2000/svg" d="M19.13,36.18l0,0a1,1,0,0,0,1.78.88,5.21,5.21,0,0,1-1.38-.61C19.37,36.4,19.26,36.28,19.13,36.18Z"></path><path xmlns="http://www.w3.org/2000/svg" d="M79,62.85a5.22,5.22,0,0,1,1.51.66c0.09,0.06.17,0.14,0.26,0.21a1,1,0,0,0,.08-0.12c0.26-.58.5-1.18,0.72-1.78A7.19,7.19,0,0,0,79.72,61c-0.23.61-.46,1.21-0.73,1.8C79,62.81,79,62.83,79,62.85Z"></path><path xmlns="http://www.w3.org/2000/svg" d="M75.1,72.44c-0.1-.05-0.2-0.09-0.3-0.15a5.16,5.16,0,0,1-1.23-1.14c-0.45.5-.93,1-1.41,1.46a7.19,7.19,0,0,0,1.51,1.33C74.16,73.45,74.64,73,75.1,72.44Z"></path><path xmlns="http://www.w3.org/2000/svg" d="M79,37.12a1,1,0,0,0,1.75-.87c-0.1.08-.19,0.17-0.3,0.24A5.21,5.21,0,0,1,79,37.12Z"></path><path xmlns="http://www.w3.org/2000/svg" d="M44.77,17.07c0-.17,0-0.32,0-0.48q-1,.16-2,0.38s0,0.07,0,.11A7.19,7.19,0,0,0,43,19c0.66-.15,1.32-0.28,2-0.38A5.16,5.16,0,0,1,44.77,17.07Z"></path><path xmlns="http://www.w3.org/2000/svg" d="M26.38,71.2a5.16,5.16,0,0,1-1.18,1.09c-0.11.07-.24,0.12-0.36,0.18q0.69,0.77,1.43,1.5h0a7.19,7.19,0,0,0,1.51-1.31C27.31,72.19,26.83,71.7,26.38,71.2Z"></path><path xmlns="http://www.w3.org/2000/svg" d="M19.17,63.79c0.12-.09.22-0.19,0.34-0.27A5.23,5.23,0,0,1,21,62.87c-0.27-.61-0.52-1.24-0.76-1.86a7.19,7.19,0,0,0-1.77.83l0,0c0.24,0.65.5,1.29,0.79,1.92h0Z"></path></g><g id="SvgjsG3412" featurekey="nameRightFeature-0" transform="matrix(1.3014243841171265,0,0,1.3014243841171265,213.07534614043058,10.143590690543864)" fill="#111111"><path d="M12.758 19.92 c-0.04 0 -0.06 0.02 -0.08 0.02 l0.08 0.08 c-0.02 0 -0.08 0.06 -0.22 0.06 c-0.16 0 -0.28 -0.22 -0.28 -0.32 c0 -0.2 0.06 -0.26 0.9 -0.26 c0.38 0 1.04 -0.02 1.12 -0.16 c0 0 0.08 -0.6 0.12 -0.66 c0 0 -0.04 -0.84 -0.04 -0.92 c0 -0.02 0.04 -0.16 0.04 -0.22 c0 -0.04 0 -0.08 -0.04 -0.16 l0 -2.52 l0.04 -0.06 c0 -0.6 -0.08 -1.04 -0.08 -1.58 c0 -0.5 0.04 -0.8 0.04 -1.16 l0 -6.24 c-0.06 -0.06 -0.14 -0.28 -0.2 -0.28 c0.02 0 -0.7 0.08 -1.32 0.08 c-0.16 0 -0.6 0 -0.6 -0.2 l0 -0.32 c-0.02 -0.02 0.14 -0.12 0.44 -0.12 l4.7 0 c0.18 0 0.28 0.02 0.4 0.16 c-0.02 0.02 -0.02 0.04 -0.02 0.06 c0 0.14 0.2 0.26 0.2 0.54 c-0.02 0 -0.02 -0.02 -0.02 -0.02 c-0.02 0 -0.02 0.02 -0.02 0.02 c0 0.12 0.46 0.96 0.46 1.48 c0 0.4 0.26 0.62 0.26 0.94 c-0.02 0.02 -0.02 0.02 -0.02 0.04 c0 0.08 0.26 0.3 0.26 0.76 c-0.02 0.02 -0.02 0.02 -0.02 0.04 c0 0.04 0.16 0.1 0.16 0.46 c0 0.02 -0.02 0.02 -0.02 0.04 c0 0.08 0.18 0.12 0.18 0.54 c0.08 0.88 0.3 0.8 0.3 0.92 c0.02 0.6 0.42 0.76 0.42 1.52 c0 0.28 0.34 0.78 0.34 1.16 c0.22 0.38 -0.06 0.24 0.44 1.2 l0.2 0 c0.08 -0.5 0.46 -1 0.46 -1.38 c0.06 -1.06 0.48 -0.96 0.48 -1.72 l0 -0.02 c0 -0.1 0.3 -0.62 0.3 -0.98 c0 -0.52 0.22 -0.6 0.22 -0.84 l-0.04 0 c0 -0.02 0.2 -0.1 0.2 -0.44 c0.08 -1.58 0.62 -1.2 0.62 -2.08 c0.2 -1.98 0.64 -1.22 0.64 -2.24 c-0.02 0 -0.02 0 -0.02 -0.02 c0 -0.04 0.32 -0.18 0.76 -0.18 c0.1 0 0.9 0.04 1 0.04 c0.12 0 1.76 -0.04 2.82 -0.04 c0.38 0 0.78 0.16 0.76 0.16 l0 0.28 l-0.04 0.04 c-0.04 0 -0.16 0.12 -0.2 0.12 l-0.04 0.04 c-0.54 0 -0.96 -0.08 -1.24 -0.08 c-0.12 0 -0.3 -0.02 -0.42 0.32 l0 7.14 c0 0.04 0.04 0.26 0.04 0.32 c0 0.04 -0.04 0.36 -0.04 0.38 s-0.02 0.02 -0.02 0.04 s0.02 0.06 0.06 0.12 c0 3.62 -0.08 2.68 -0.08 4.44 c0 0.6 0.1 1.2 0.58 1.2 c0.1 0 0.22 -0.06 0.3 -0.06 l0.48 0 l0.02 0.02 c0.2 0 0.08 -0.02 0.34 -0.02 c0.24 0 0.3 0.28 0.3 0.32 c0 0.1 -0.04 0.22 -0.18 0.22 c-0.16 0 -0.18 0.04 -0.18 0.04 c-0.08 0 -0.52 -0.04 -0.58 -0.04 c-0.96 0 -1.36 0.06 -2 0.06 c-0.18 0 -0.44 -0.06 -0.68 -0.06 c-0.5 0 -0.54 0.04 -0.74 0.04 c-0.4 0 -1.02 -0.06 -1.06 -0.06 c0 0.06 -0.76 0.06 -0.84 0.06 c-0.32 0 -0.32 -0.02 -0.42 -0.06 l0.06 -0.04 c0 -0.04 -0.04 -0.12 -0.06 -0.18 c-0.04 0.02 -0.04 0.06 -0.04 0.1 l0 0.08 c-0.08 0 -0.12 0 -0.12 -0.02 l0 -0.28 c0.16 -0.06 0.3 -0.16 0.36 -0.18 l0.76 0 c0.04 0.02 0 0.02 0.14 0.02 c0.02 0 0.04 0 0.04 -0.04 l0.4 0 c0 0.02 0.02 0.02 0.04 0.02 c0.1 0 0.26 -0.5 0.26 -1.7 c0 -1.56 -0.04 -1.98 -0.04 -2.8 c0 -0.02 0 -0.04 0.04 -0.1 c0 0.06 -0.1 -3.48 -0.1 -4.6 c-0.02 0.02 -0.02 0.04 -0.02 0.04 l0 0 s0.1 -0.88 0.1 -2.2 c0 -0.6 -0.04 -1.12 -0.24 -1.12 c0 -0.02 0.02 -0.02 0.02 -0.02 c-0.3 0 -0.28 1.04 -0.64 1.7 c0.02 0 0.02 0.02 0.02 0.04 c0 0.1 -0.22 0.38 -0.22 0.6 c0 0.02 0.02 0.04 0.02 0.06 c-0.06 -0.02 -0.04 0.36 -0.2 0.52 c0 1.04 -0.54 1.14 -0.54 1.92 c-0.14 0.6 -0.3 0.46 -0.3 1.02 c-0.04 0.42 -0.52 1.18 -0.52 1.48 c0 0.64 -0.24 0.3 -0.24 0.94 l0.02 0 c0 0.06 -0.28 0.46 -0.28 0.88 c0 1 -0.68 1.36 -0.68 2.14 c0 0.52 -0.32 0.82 -0.32 1.1 c0 0.04 -0.04 0.76 -0.5 0.76 c-0.42 0 -0.74 -0.92 -0.74 -1.4 c-0.16 -0.7 -0.22 -0.88 -0.54 -1.82 c-0.14 -0.68 -0.42 -0.9 -0.42 -1.26 c0 -0.28 -0.3 -0.64 -0.3 -0.9 c-0.04 -0.56 -0.06 0.04 -0.56 -1.94 c0 0 -0.12 -0.58 -0.2 -0.64 l0 -0.14 s0 -0.04 0.02 -0.06 c0.02 0.02 0.08 0.04 0.1 0.04 s0.02 0 0.02 -0.02 s-0.02 -0.06 -0.04 -0.08 c-0.04 0 -0.08 0 -0.12 0.02 c-0.06 -0.04 -0.28 -0.48 -0.28 -0.76 c-0.04 -0.74 -0.46 -1.44 -0.66 -2.14 l0 0.02 c-0.04 0 -0.46 -2.22 -0.72 -2.22 c-0.2 0 -0.16 0.02 -0.18 0.08 l0 1.72 c0 0.04 0.02 0.16 0.02 0.2 c0 0.16 -0.08 0.14 -0.08 0.22 c0 0.06 0.06 0.2 0.06 0.6 l-0.02 0.02 s0.02 0 0.02 0.04 c0 0.02 0 0.06 -0.04 0.14 c0 -0.02 0.04 0.74 0.04 0.82 c0 0.18 -0.04 0.68 -0.04 1.36 c0 0.36 0.04 1.6 0.04 1.68 c0 0.02 -0.02 0.06 -0.04 0.1 c0.04 0.12 0.04 0.18 0.04 0.36 c0 0.14 0 0.3 -0.04 0.3 c0 0.04 0.02 0.08 0.04 0.12 c0 0.62 -0.06 1 -0.06 1.22 c0 0.24 0.06 0.9 0.06 0.9 c0 0.48 -0.06 0.9 -0.06 1.64 c0 0.6 0.08 1.22 0.56 1.22 c0.62 0 1.02 -0.06 1.02 -0.1 c0.4 0 0.54 0.18 0.54 0.38 c0 0.06 -0.08 0.26 -0.38 0.26 c-0.2 0 -0.18 -0.04 -0.28 -0.12 c-0.06 0 -0.12 0.06 -0.18 0.06 s-0.06 -0.06 -0.1 -0.1 c-0.14 0.1 -0.1 0.16 -0.22 0.16 l0 -0.1 c-0.12 0 0 0.08 -0.44 0.08 c-0.02 0 -0.08 -0.02 -0.12 -0.04 c-0.02 0 -0.6 0.06 -1.02 0.06 l-0.1 -0.02 c0.12 -0.06 0.28 -0.06 0.32 -0.1 c-0.24 0 -0.4 0.02 -0.64 0.02 c0.02 0.04 0.16 0.08 0.26 0.08 l-0.1 0 c-0.1 0 -0.22 0.02 -0.28 0.1 l-0.08 -0.04 l-0.36 0 l-0.02 0.04 l-0.28 0 c-0.08 -0.06 -0.22 -0.08 -0.28 -0.1 c0 -0.1 -0.04 -0.1 -0.04 -0.1 z M12.918 19.98 c-0.02 0 -0.04 0.02 -0.04 0.02 c0 0.02 0.02 0.02 0.04 0.02 c0 0 0.02 0 0.02 -0.02 z M16.598 19.94 l0.04 0.04 l0.08 -0.04 l-0.12 0 z M13.677999999999999 19.92 l0 0.02 l0.02 -0.02 l-0.02 0 z M15.198 19.94 l0.02 0 l-0.02 0 z M15.318 19.88 c-0.02 0 -0.02 0.02 -0.02 0.04 s0 0.02 0.02 0.02 s0.02 0 0.02 -0.02 s0 -0.04 -0.02 -0.04 z M12.677999999999999 19.58 c-0.26 0 -0.28 0.1 -0.28 0.2 l0 0.1 c0.14 -0.06 0.1 -0.2 0.2 -0.22 l0.24 0 l0 -0.04 c-0.02 0 -0.14 -0.04 -0.16 -0.04 z M13.198 19.78 l-0.04 0.04 l0.04 0 l0 -0.04 z M28.718 19.58 l0.22 0.24 c0.02 -0.1 0.02 -0.16 0.04 -0.16 l0 0.1 l-0.04 0.06 c0 -0.2 -0.26 -0.18 -0.26 -0.2 s0 -0.02 0.04 -0.04 z M16.878 19.58 c-0.1 0.02 -0.12 0.04 -0.12 0.12 l0.16 -0.04 c0 -0.04 -0.02 -0.08 -0.04 -0.08 z M19.698 19.54 c0.02 0.04 0.1 0.1 0.16 0.16 c0.04 -0.02 0.06 -0.12 0.08 -0.12 c0 -0.04 -0.06 -0.04 -0.14 -0.04 l-0.1 0 z M28.198 19.62 l0.06 0.08 l0.06 -0.08 l-0.12 0 z M19.958 19.42 c-0.02 0 -0.02 0.02 -0.02 0.04 s0 0.04 0.02 0.04 s0.02 -0.02 0.02 -0.04 s0 -0.04 -0.02 -0.04 z M14.558 16.759999999999998 l0 0.04 l0.02 0 z M17.058 12.16 l0 0.04 l0.04 0 l0 -0.04 l-0.04 0 z M17.038 12 c-0.02 0 -0.04 0.02 -0.04 0.02 c0 0.02 0.02 0.04 0.04 0.04 c0 0 0.02 -0.02 0.02 -0.04 z M14.878 9.78 c-0.02 0 -0.04 0.02 -0.04 0.04 c0 0 0.02 0.02 0.04 0.02 l0.02 -0.02 c0 -0.02 -0.02 -0.04 -0.02 -0.04 z M26.677999999999997 8.16 c0 0.06 0 0.08 0.08 0.08 c-0.04 -0.04 -0.06 -0.08 -0.08 -0.08 l0 0 z M26.978 8.16 c-0.04 0.02 -0.06 0.04 -0.06 0.06 s0 0.02 0.02 0.02 s0.02 -0.04 0.04 -0.08 z M23.497999999999998 6.92 c-0.02 0 -0.04 0 -0.04 0.02 l0.04 0 l0.02 0 c0 -0.02 0 -0.02 -0.02 -0.02 z M23.858 5.66 c0.02 0.04 0.04 0.06 0.06 0.08 c0.02 0 0.06 0.02 0.06 -0.08 c0 -0.06 0 -0.12 -0.04 -0.12 c-0.06 0 -0.06 0.12 -0.08 0.12 z M12.677999999999999 5.42 c0 0.08 0.04 0.1 0.1 0.12 l0.02 -0.04 c-0.02 -0.04 -0.06 -0.06 -0.12 -0.08 z M12.458 5.380000000000001 c-0.02 0 -0.04 0.02 -0.04 0.02 c0 0.02 0.02 0.02 0.04 0.02 c0 0 0.02 0 0.02 -0.02 z M28.258 5.34 l0 0.02 l0.04 0 z M12.418 5.26 l0.04 0.08 s0.12 -0.16 0.14 -0.24 c-0.1 0 -0.18 0.02 -0.18 0.16 z M12.677999999999999 5.199999999999999 c-0.02 0 -0.04 0.02 -0.04 0.04 c0 0 0.02 0.02 0.04 0.02 s0.02 -0.02 0.02 -0.02 c0 -0.02 0 -0.04 -0.02 -0.04 z M13.458 5.199999999999999 l0 0.04 l0.04 -0.04 l-0.04 0 z M27.238 5.199999999999999 c-0.02 0 -0.04 0.02 -0.04 0.04 c0 0 0.02 0.02 0.04 0.02 l0.02 -0.02 c0 -0.02 -0.02 -0.04 -0.02 -0.04 z M28.298 5.199999999999999 c-0.02 0 -0.04 0.02 -0.04 0.04 c0 0 0.02 0.02 0.04 0.02 l0.02 -0.02 c0 -0.02 -0.02 -0.04 -0.02 -0.04 z M24.558 5.140000000000001 l0.04 0.06 c0.06 0 0.06 -0.02 0.06 -0.04 c0 0 0 -0.02 -0.02 -0.06 c-0.06 0 -0.06 0.02 -0.08 0.04 z M25.018 5.1 l0 0.1 l0.06 0 l0 -0.1 l-0.06 0 z M27.198 5.199999999999999 c0 -0.02 -0.02 -0.02 -0.02 -0.02 l0 0.06 s0.02 -0.02 0.02 -0.04 z M27.298000000000002 5.140000000000001 l-0.04 0.04 l0.04 0 l0 -0.04 z M27.538 5.140000000000001 c-0.02 0 -0.04 0.02 -0.04 0.04 c0 0 0.02 0.02 0.04 0.02 l0 -0.06 z M28.637999999999998 5.1 l0 0.08 l0.04 0 l0 -0.08 l-0.04 0 z M28.398 5.1 l-0.02 -0.02 c-0.02 0 -0.02 0.02 -0.02 0.02 c0 0.02 0 0.04 0.02 0.04 c0 0 0.02 -0.02 0.02 -0.04 z M33.296 20.08 c-0.22 0 -0.22 0.02 -0.36 0.02 c-0.04 0 -0.22 -0.16 -0.28 -0.22 c0 0 0.04 -0.3 0.04 -0.36 c0.72 -0.06 1.24 -0.08 1.8 -0.14 c0.06 0 0 -0.38 0.22 -0.38 l0 -0.32 c0.02 0.02 0.04 0.02 0.04 0.02 c0.12 0 0.1 -0.56 0.26 -0.6 c0 -0.04 0.08 -0.72 0.28 -0.88 l0.1 -0.38 s0.68 -2.32 0.94 -2.32 c0.02 0 0.06 0.02 0.08 0.02 c0.1 0 0.12 -0.04 0.12 -0.08 c0 -0.18 -0.16 -0.1 -0.16 -0.24 c0 -0.36 0.36 -1.04 0.4 -1.08 c0.02 -0.82 0.32 -0.62 0.32 -1.14 l0 0.02 c0.02 0 0.18 -0.5 0.26 -0.56 c0 0.04 0.02 0.04 0.02 0.04 s-0.02 0 -0.02 -0.02 c0 -0.12 0.4 -0.94 0.4 -1.16 c0.1 0 0.12 -0.02 0.12 -0.06 s-0.02 -0.08 -0.02 -0.14 c0 -0.12 0.04 -0.24 0.18 -0.4 l0 0.02 c0.04 0 0.02 -0.44 0.18 -0.44 l0.08 -0.38 l0.12 -0.1 l0 -0.32 l0.16 -0.12 l0 -0.34 s0.12 -0.04 0.12 -0.08 c-0.02 0 -0.04 -0.04 -0.04 -0.06 c0 -0.26 0.5 -1.02 0.5 -1.54 l0.1 -0.08 l0 -0.32 c0 0.02 0.02 0.02 0.02 0.02 c0.28 0 -0.1 -1.16 0.94 -1.16 c0.08 0 0.44 0.22 0.44 0.52 c0.08 0.08 -0.08 0.28 0.28 0.94 c0.02 0 0.5 1.3 0.5 1.64 c0.18 0 0.06 0.4 0.52 1.36 c0.12 0.54 0.34 0.52 0.34 0.76 l0 -0.02 s0.1 0.64 0.18 0.64 l-0.02 0 c0 0.08 0.48 0.6 0.48 1.22 c0.12 0.58 0.32 0.34 0.32 0.84 l-0.02 -0.02 c0 0.04 0.32 0.46 0.32 0.72 c-0.02 0 -0.04 0 -0.04 0.02 c0 0.08 0.22 0.36 0.22 0.46 c0 0.02 -0.02 0.02 -0.02 0.04 c0 0.04 0.2 0.2 0.2 0.56 c0.08 0.7 0.42 0.74 0.42 1.18 c-0.02 0.04 -0.04 0.06 -0.04 0.08 c0 0.1 0.32 0.1 0.32 0.56 c0 1.14 0.78 1.4 0.78 2.2 c0.08 0.64 0.46 0.86 0.52 0.9 l1.3 0 c0.08 0 0.2 0.06 0.26 0.1 l0 0.36 c-0.08 0.04 -0.14 0.12 -0.46 0.12 c-0.04 0 -1 -0.04 -1.4 -0.04 c-0.18 0 -0.34 0.04 -0.5 0.04 c-0.02 0 -0.34 -0.04 -0.38 -0.04 c-1.08 0 -1.76 0.06 -2.18 0.06 c-0.02 0 -0.02 -0.06 -0.34 -0.06 c-0.16 0 -0.2 0 -0.28 0.04 c-0.1 0 -0.18 -0.04 -0.22 -0.1 c-0.04 0 -0.12 0.02 -0.12 0.02 l0.04 0.04 l-0.04 0.04 c-0.66 0 -0.72 0 -0.86 -0.12 l0.04 -0.34 c0 -0.04 0.14 -0.12 0.22 -0.12 l1.5 0 c0.02 0.02 0.16 -0.1 0.16 -0.2 c0 -0.04 -0.32 -0.46 -0.32 -0.7 c0.04 -0.02 0.04 -0.02 0.04 -0.06 c0 -0.1 -0.34 -0.36 -0.34 -0.88 c0.02 0 0.02 0 0.02 -0.02 c0 -0.04 -0.22 -0.2 -0.22 -0.36 c0 -0.72 -0.32 -0.72 -0.32 -1.26 l0 0.02 c-0.04 0 -0.22 -0.5 -0.4 -0.5 c-1.34 0 -2.76 0.04 -4.38 0.04 c0 0.08 -0.16 0.12 -0.16 0.34 c-0.3 0.66 -0.34 0.56 -0.34 0.88 c-0.24 0.16 0.02 0.28 -0.26 0.62 c-0.16 1.1 -0.38 0.48 -0.38 1.22 l0 -0.02 c-0.04 0 -0.22 0.52 -0.24 0.52 c0 0.32 0.08 0.32 0.2 0.4 l1.6 0 c0.1 0 0.3 0.02 0.3 0.26 s-0.06 0.36 -0.42 0.36 c-0.06 0 -0.14 -0.04 -0.24 -0.04 c-0.22 0 -0.3 0.04 -0.4 0.04 c-0.04 0 -0.14 -0.04 -0.16 -0.04 l-1.42 0 c-0.04 0.04 -0.08 0.04 -0.12 0.04 c-0.06 0 -0.16 -0.02 -0.24 -0.08 c0 0 0.04 -0.04 0.04 -0.08 l-0.06 0 c-0.04 0 -0.06 0 -0.06 0.04 l0.02 0.04 c-0.02 0.08 -0.04 0.08 -0.16 0.08 c0 -0.26 0 -0.2 0.06 -0.28 c-0.02 -0.08 0.02 -0.18 -0.04 -0.22 c0 0.14 -0.06 0.24 -0.18 0.32 c0 0.04 0.06 0.08 0.1 0.1 c-0.08 0 -0.3 0.1 -0.34 0.16 c-0.36 0 -0.32 -0.08 -0.54 -0.08 z M33.135999999999996 19.92 l0 0.04 l0.1 0 c-0.06 -0.04 -0.08 -0.04 -0.1 -0.04 z M33.476 19.96 c0 -0.02 -0.02 -0.02 -0.04 -0.02 s-0.04 0 -0.04 0.02 s0.02 0.04 0.04 0.04 s0.04 -0.02 0.04 -0.04 z M33.596 19.92 c-0.02 0 -0.04 0.02 -0.04 0.04 s0.02 0.04 0.04 0.04 s0.02 -0.02 0.02 -0.04 s0 -0.04 -0.02 -0.04 z M34.035999999999994 19.88 c-0.12 0 -0.28 0.04 -0.32 0.08 c0.34 0 0.24 -0.02 0.32 -0.08 z M34.696 19.9 c0 0.02 0.16 0.04 0.18 0.06 l0.04 -0.04 c-0.1 -0.02 -0.2 -0.02 -0.22 -0.02 z M36.175999999999995 19.92 c0.26 0 0.66 0.04 0.76 0.04 c-0.22 0 -0.22 -0.22 -0.24 -0.32 c0.02 0 -0.16 0.04 -0.16 0.16 c-0.04 0 -0.02 -0.12 -0.18 -0.12 c0 0.14 -0.08 0.18 -0.18 0.24 z M37.096 19.92 l0.04 0.04 c0.02 0 0.14 -0.04 0.18 -0.04 l-0.22 0 z M34.336 19.9 c-0.02 0 -0.04 0.02 -0.04 0.04 c0 0 0.02 0.02 0.04 0.02 s0.02 -0.02 0.02 -0.02 c0 -0.02 0 -0.04 -0.02 -0.04 z M35.916 19.92 c0 0 -0.04 -0.02 -0.06 -0.02 c-0.04 0 -0.04 0.02 -0.04 0.02 c0 0.02 0 0.04 0.04 0.04 c0.02 0 0.06 -0.02 0.06 -0.04 z M40.836 19.88 c0.02 0.02 0.08 0.04 0.1 0.04 s0.12 -0.02 0.16 -0.04 l0 -0.24 s-0.04 -0.02 -0.06 -0.02 c-0.18 0 -0.2 0.04 -0.2 0.12 l0 0.14 z M46.256 19.9 c0.06 0 0.08 0.02 0.18 0.02 c0.02 0 0.12 -0.02 0.18 -0.02 l-0.36 0 z M47.215999999999994 19.9 l0 0.02 l0.02 -0.02 l-0.02 0 z M41.396 19.88 l-0.04 0.02 l0.06 0.02 z M42.896 19.88 c-0.02 0 -0.04 0.02 -0.04 0.02 s0.02 0.02 0.04 0.02 s0.02 -0.02 0.02 -0.02 s0 -0.02 -0.02 -0.02 z M45.635999999999996 19.88 c0.02 0.02 0.04 0.02 0.1 0.02 l0.38 0 c-0.02 -0.02 -0.06 -0.04 -0.1 -0.06 c-0.04 0.04 -0.1 0.04 -0.12 0.04 c-0.18 0 -0.14 -0.14 -0.18 -0.14 z M32.815999999999995 19.74 c0 0.12 0 0.1 0.04 0.14 l0.26 0 l0 -0.34 c-0.28 0.14 -0.3 0.08 -0.3 0.2 z M37.036 19.78 l0 0.1 c0.04 0 0.06 -0.04 0.06 -0.04 c-0.02 -0.12 -0.08 -0.12 -0.08 -0.22 c-0.08 0 -0.12 0.04 -0.12 0.06 c0.02 0.04 0.04 0.1 0.14 0.1 z M46.815999999999995 19.84 c-0.02 0 -0.02 0.02 -0.02 0.04 s0 0.02 0.02 0.02 s0.02 0 0.02 -0.02 s0 -0.04 -0.02 -0.04 z M33.355999999999995 19.62 c0 0.16 -0.02 0.2 -0.06 0.22 c0.12 0 0.22 0 0.22 -0.12 s-0.02 -0.1 -0.16 -0.1 z M35.476 19.8 l0 0.04 l0.04 0 z M35.836 19.72 l0.04 0.02 l0 -0.06 z M37.135999999999996 19.58 c0 0.02 0 0.06 0.02 0.06 c0 0 0.08 0 0.08 -0.06 c0 -0.04 -0.04 -0.04 -0.08 -0.06 c-0.02 0.02 -0.02 0.04 -0.02 0.06 z M46.275999999999996 19.62 c0 0.02 0.04 0.02 0.06 0.02 c0 -0.1 0 -0.1 -0.04 -0.12 c0 0 -0.02 0.06 -0.02 0.1 z M47.156 19.48 c-0.1 0.02 -0.08 0.06 -0.08 0.16 l0.16 -0.1 c0 -0.02 -0.06 -0.04 -0.08 -0.06 z M45.635999999999996 19.54 c-0.02 0 -0.04 0.02 -0.04 0.02 c0 0.02 0.02 0.02 0.04 0.02 s0.02 0 0.02 -0.02 c0 0 0 -0.02 -0.02 -0.02 z M34.656 19.48 l0 0.06 l0.04 -0.06 l-0.04 0 z M34.715999999999994 19.18 c0 0.02 0.02 0.3 0.2 0.3 c-0.04 -0.02 -0.1 -0.2 -0.1 -0.3 l0.04 -0.12 l-0.04 -0.04 c-0.08 0 -0.1 0.12 -0.1 0.16 z M35.455999999999996 18.24 c-0.06 0.04 -0.14 0.16 -0.14 0.32 c0.02 0.02 0.04 0.02 0.04 0.02 c0.08 0 0.1 -0.12 0.12 -0.18 c0 -0.02 -0.02 -0.18 -0.02 -0.16 z M35.355999999999995 17.72 c0 -0.02 -0.02 -0.02 -0.02 -0.02 c-0.02 0 -0.02 0 -0.02 0.02 s0 0.02 0.02 0.02 c0 0 0.02 0 0.02 -0.02 z M35.916 16.28 c-0.02 0 -0.04 0.02 -0.04 0.02 s0.02 0.02 0.04 0.02 l0.02 -0.02 z M41.596 16 c-0.02 0 -0.02 0.02 -0.02 0.04 s0 0.04 0.02 0.04 s0.02 -0.02 0.02 -0.04 s0 -0.04 -0.02 -0.04 z M36.096 15.84 c-0.02 0 -0.02 0.02 -0.02 0.04 s0 0.04 0.02 0.04 s0.02 -0.02 0.02 -0.04 s0 -0.04 -0.02 -0.04 z M36.096 15.42 c-0.02 0 -0.02 0.02 -0.02 0.02 c0 0.02 0 0.02 0.02 0.02 s0.02 0 0.02 -0.02 c0 0 0 -0.02 -0.02 -0.02 z M37.016 14.6 c0.06 0.24 0.08 0.26 0.22 0.34 c0.24 0 0.9 -0.04 2.72 -0.04 c0.16 0 0.24 0.06 0.64 0.06 c0.2 0 0.4 -0.06 0.4 -0.28 c0 -0.1 -0.26 -0.48 -0.26 -0.68 l0.02 0 c0 -0.04 -0.22 -0.22 -0.22 -0.44 c0 -0.74 -0.38 -0.66 -0.38 -1.12 c0.02 0.02 0.02 0.04 0.02 0.04 c-0.02 0 -0.38 -0.66 -0.38 -1.04 c0 -0.26 -0.36 -0.64 -0.36 -1.08 l0.02 0 c0 -0.04 -0.22 -0.24 -0.22 -0.48 c-0.18 -0.42 -0.2 -0.38 -0.36 -0.38 c-0.58 1.38 -0.54 1.4 -0.72 1.74 c0 -0.04 -0.02 0.64 -0.28 0.74 l0 -0.04 c-0.02 0 -0.22 1.14 -0.42 1.32 c0 0.26 -0.44 0.6 -0.44 1.34 z M36.616 14.04 c-0.02 0 -0.04 0.02 -0.04 0.04 s0.02 0.04 0.04 0.04 s0.02 -0.02 0.02 -0.04 s0 -0.04 -0.02 -0.04 z M37.07599999999999 12.719999999999999 c-0.02 0 -0.04 0.02 -0.04 0.04 c0 0 0.02 0.02 0.04 0.02 l0 -0.06 z M37.916 11.54 l0 0.02 l0.02 0 z M37.836 11.22 c-0.02 0 -0.04 0.02 -0.04 0.04 l0.04 0 l0.02 0 c0 -0.02 0 -0.04 -0.02 -0.04 z M37.916 10.7 c-0.02 0 -0.04 0.02 -0.04 0.02 c0 0.02 0.02 0.04 0.04 0.04 c0 0 0.02 -0.02 0.02 -0.04 z M38.455999999999996 9.34 c0 -0.02 -0.02 -0.02 -0.02 -0.02 c-0.02 0 -0.02 0 -0.02 0.02 s0 0.04 0.02 0.04 c0 0 0.02 -0.02 0.02 -0.04 z M38.516 9.28 l-0.02 0 c0 0.02 0.02 0.02 0.02 0.02 s0.02 0 0.02 -0.02 l-0.02 0 z M40.696 7.880000000000001 c-0.02 0 -0.02 0.02 -0.02 0.04 s0 0.04 0.02 0.04 s0.02 -0.02 0.02 -0.04 s0 -0.04 -0.02 -0.04 z M40.315999999999995 5.1 c0 0 -0.02 0.02 -0.02 0.04 l0.04 0 c0 -0.02 0 -0.04 -0.02 -0.04 z M39.796 5.0600000000000005 c-0.02 0 -0.02 0.02 -0.02 0.04 s0 0.04 0.02 0.04 s0.02 -0.02 0.02 -0.04 s0 -0.04 -0.02 -0.04 z M39.955999999999996 5.0600000000000005 l0.08 0.04 c0.16 0 0.1 0 0.16 -0.04 l-0.06 -0.08 c-0.08 0 -0.12 0.08 -0.18 0.08 z M63.254 20.22 c-0.04 -0.04 -0.16 -0.12 -0.2 -0.16 c0.04 0 -0.46 -0.46 -0.46 -0.68 c0 -0.08 -0.44 -0.52 -0.44 -0.72 c0 -0.18 -0.58 -0.46 -0.58 -0.86 c-0.28 -0.6 -0.48 -0.6 -0.52 -0.8 c0.02 0 0.04 0 0.04 -0.02 s-0.48 -0.36 -0.38 -0.56 c0 0 -0.02 0.02 -0.04 0.02 c-0.04 0 -0.14 -0.08 -0.44 -0.7 c0 -0.12 -0.42 -0.3 -0.5 -0.72 c-0.38 -0.26 -0.04 -0.42 -0.84 -1.22 c-0.26 -0.2 0.2 0.18 -0.7 -1.08 c0 -0.04 0 -0.06 0.04 -0.1 c0 -0.04 -0.04 -0.04 -0.14 -0.04 l0 -0.02 c0 -0.1 -0.3 -0.24 -0.3 -0.42 c0 -0.08 -0.18 -0.46 -0.5 -0.78 c-0.02 0.02 -0.02 0.04 -0.02 0.04 l0 0 s0.02 -0.02 0.02 -0.04 c0 -0.08 -0.08 -0.28 -0.52 -0.76 c0 -0.26 -0.38 -0.34 -0.48 -0.76 c0 -0.08 -0.6 -0.58 -0.62 -0.92 l0 -0.02 c0 -0.12 -0.34 -0.32 -0.5 -0.72 c0 -0.26 -0.42 -0.38 -0.42 -0.72 c-0.1 0 -0.16 -0.36 -0.68 -0.9 c-0.1 0.02 -0.26 0.1 -0.26 0.18 l0 0.76 c0 0.04 0.02 0.1 0.02 0.14 c0 0.02 -0.02 0.64 -0.02 0.72 c0 0.68 0.02 0.84 0.02 1.04 c0 1.06 -0.02 1.32 -0.02 1.66 c0 0.68 0.06 1.26 0.06 1.98 c0 0.02 -0.04 0.08 -0.04 0.36 l0 5.82 c0.06 0.06 0.16 0.2 0.24 0.2 l1.42 0 c0.2 0 0.46 0.12 0.46 0.4 c0 0.18 -0.14 0.22 -0.3 0.22 l-1.34 0 l-0.24 -0.08 l0.08 0 l-0.12 -0.12 l0 0.16 c-0.14 0.02 -1.32 0.06 -1.32 0.06 c-0.02 0 -0.06 0 -0.1 -0.02 c0.04 -0.02 0.08 -0.04 0.1 -0.08 c-0.16 0 -0.16 0.02 -0.22 0.08 l-0.38 0 l-0.04 -0.04 l0.04 -0.04 l-0.04 -0.04 c-0.04 0.02 -0.2 0.04 -0.2 0.08 l0.04 0.04 c-0.14 0.04 -0.22 0.02 -0.4 0.02 s-0.44 -0.02 -0.44 -0.26 c0 -0.44 0.74 -0.46 1.28 -0.46 l0.08 0.04 l0.5 0 l0.02 0 c0.18 0 0.18 -0.84 0.18 -1.22 c0 -3.14 -0.08 -3.88 -0.08 -10.28 c0.08 -0.24 0.08 -1.12 0.08 -1.58 c0 -0.44 -0.06 -0.74 -0.64 -0.74 c-0.66 0.04 -0.48 0.16 -0.86 0.16 c-0.28 0 -0.64 -0.1 -0.64 -0.44 c0 -0.22 0.38 -0.52 0.6 -0.52 c0.58 0 -0.06 0.2 1.56 0.2 c0.18 0 0.36 -0.06 0.46 -0.06 c0.3 0 0.6 0.06 0.88 0.06 c0.16 0 0.3 -0.02 0.38 -0.06 c0.06 0.04 0.24 0.04 0.3 0.04 l1.02 0 c0.48 0 0.94 0.98 0.96 0.98 c0.06 0 0.68 1.04 0.68 1.14 c0 0 1.62 2.42 2.06 3.08 l0 0.02 c0 0.04 0.3 0.22 0.3 0.44 l-0.02 0 l-0.02 0 c0 0.06 0.42 0.38 0.42 0.54 c0.56 0.74 0.26 0.68 0.84 1.26 l0.28 0.58 c0.02 0.06 0.46 0.46 0.46 0.68 c0.24 0.02 0.36 0.9 0.7 0.92 c0.08 0 0.2 0 0.2 -0.1 l0 -1.6 c0 -0.02 0.04 -0.14 0.04 -0.16 c0 -0.22 -0.04 -0.34 -0.04 -0.52 c0 -0.64 -0.04 -4.06 -0.04 -6.24 c-0.04 -0.18 -0.12 -0.32 -0.22 -0.4 c-0.7 0 -0.72 0.04 -0.92 0.04 c-0.66 0 -0.82 0.04 -0.82 -0.42 c0 -0.24 0.28 -0.28 0.72 -0.28 c0.34 0 0.88 0.02 1.56 0.08 c0.06 0 0.24 -0.04 0.3 -0.04 c0.08 0 0.24 0.04 0.36 0.04 c0.48 -0.04 0.94 -0.08 1.28 -0.08 c0.02 0.04 0.38 0.12 0.42 0.24 l0 0.34 c-0.02 0.08 -0.36 0.12 -0.46 0.12 c-0.22 0 -0.5 -0.04 -0.72 -0.04 c-0.66 0.16 -0.78 -0.18 -0.78 0.56 l0 2.98 c0 0.2 0.02 0.28 0.02 0.62 c0 0.42 0 2.9 -0.06 3 c0 -0.04 0.04 1.98 0.04 2.26 c0 0.8 -0.04 0.72 -0.04 0.86 c0 0.1 0.06 0.44 0.06 0.56 l0 -0.06 c0 0 -0.06 0.26 -0.06 1.5 c0 0.78 0.06 1.62 0.06 1.96 c0 0.14 -0.04 0.22 -0.28 0.48 c0 0.02 0 0.04 -0.02 0.04 s-0.06 -0.1 -0.2 -0.1 z M63.254 20.04 l0 0.02 l0.06 0 z M51.394 19.96 c0.02 0.02 0.02 0.04 0.06 0.04 c-0.02 -0.04 -0.06 -0.04 -0.06 -0.04 z M51.693999999999996 19.96 c-0.04 0 -0.06 0.02 -0.08 0.04 l0.04 0 s0.04 0 0.06 -0.04 l-0.02 0 z M52.193999999999996 19.96 l0.04 0.04 c0.04 0 0.2 -0.12 0.2 -0.32 l-0.12 0 c0 0.12 0.02 0.2 -0.12 0.28 z M52.934 19.96 c0 -0.02 -0.02 -0.02 -0.04 -0.02 c0 0 -0.02 0 -0.02 0.02 s0.02 0.04 0.02 0.04 c0.02 0 0.04 -0.02 0.04 -0.04 z M54.674 19.92 c0 0 -0.02 0.02 -0.02 0.04 s0.02 0.04 0.02 0.04 c0.02 0 0.02 -0.02 0.02 -0.04 s0 -0.04 -0.02 -0.04 z M54.934 19.92 l0 0.04 l0.04 0 l0 -0.04 l-0.04 0 z M55.714 19.92 c-0.02 0 -0.04 0.02 -0.04 0.04 s0.02 0.04 0.04 0.04 s0.02 -0.02 0.02 -0.04 s0 -0.04 -0.02 -0.04 z M52.474 19.9 c-0.02 0 -0.04 0 -0.04 0.02 l0.06 0 c0 -0.02 -0.02 -0.02 -0.02 -0.02 z M55.333999999999996 19.88 c-0.04 0 -0.06 0 -0.08 0.02 z M51.254 19.76 l0 0.04 l0 -0.06 l0 0.02 z M51.254 19.68 c0.04 0.02 0.1 0.02 0.14 0.08 c0.04 0 0.12 -0.06 0.14 -0.12 l-0.28 0 l0 0.04 z M55.774 19.64 l0 0.1 l0.04 0 c0 -0.04 0 -0.08 -0.04 -0.1 z M55.653999999999996 19.58 c-0.04 0 -0.12 0.02 -0.12 0.08 c0 0.02 0.02 0.02 0.02 0.04 c0.06 0 0.1 -0.04 0.1 -0.12 z M53.394 19.34 c0 0.04 0.02 0.08 0.06 0.08 s0.14 -0.04 0.14 -0.04 l0 -0.04 l-0.2 0 z M53.653999999999996 19.06 l0 0.12 l0.02 0 c0 -0.02 0 -0.06 -0.02 -0.12 z M53.454 18.2 c-0.06 0 -0.06 0.06 -0.06 0.06 l0.06 -0.06 l0 0 z M53.394 17.14 c-0.02 0 -0.02 0.02 -0.02 0.04 l0.04 0 c0 -0.02 0 -0.04 -0.02 -0.04 z M53.593999999999994 16.84 l0 0.02 l0.02 0 z M61.013999999999996 16.86 l-0.02 0 l0.02 0 z M53.454 16.16 l0.08 0.08 c0 -0.02 0.02 -0.04 0.02 -0.06 s-0.04 -0.06 -0.1 -0.08 c-0.1 0 -0.12 0 -0.16 0.02 c0 0.06 0.02 0.06 0.04 0.08 c0.04 -0.02 0.08 -0.04 0.12 -0.04 z M53.614 15.68 l0.04 0.04 c0.02 -0.02 0.02 -0.04 0.02 -0.08 c0 0 -0.04 0.02 -0.06 0.04 z M53.333999999999996 15.18 c-0.02 0 -0.04 0.02 -0.04 0.02 s0.02 0.02 0.04 0.02 s0.02 -0.02 0.02 -0.02 s0 -0.02 -0.02 -0.02 z M53.294 13.18 c-0.02 0 -0.04 0.02 -0.04 0.04 l0.04 0 l0.02 0 c0 -0.02 0 -0.04 -0.02 -0.04 z M53.294 13.02 l0 0.08 c0 0.02 0.02 0.02 0.02 0.02 c0.04 0 0.06 -0.1 0.06 -0.1 l-0.08 0 z M53.294 12.46 c-0.02 0 -0.04 0.02 -0.04 0.02 c0 0.02 0.02 0.02 0.04 0.02 s0.02 0 0.02 -0.02 c0 0 0 -0.02 -0.02 -0.02 z M53.294 9.3 c-0.02 0 -0.04 0.02 -0.04 0.04 s0.02 0.04 0.04 0.04 s0.02 -0.02 0.02 -0.04 s0 -0.04 -0.02 -0.04 z M53.254 9.22 c-0.02 0 -0.02 0.02 -0.02 0.04 l0.04 0 c0 -0.02 0 -0.04 -0.02 -0.04 z M63.854 5.48 c0 0 -0.02 0 -0.02 0.02 s0.02 0.04 0.02 0.04 c0.02 0 0.02 -0.02 0.02 -0.04 s0 -0.02 -0.02 -0.02 z M64.314 5.42 c0 0.06 0.06 0.06 0.08 0.06 l0.08 -0.26 c0.1 0 0.18 0.08 0.3 0.08 c0.02 0 0.04 0 0.04 -0.08 c0 -0.1 -0.16 -0.1 -0.28 -0.1 l0.02 0 s-0.26 0.12 -0.26 0.26 c0 0 0 0.02 0.02 0.04 z M65.334 5.1 l-0.02 -0.02 c0 0.04 0.12 0.32 0.12 0.4 c0.02 0 0.1 0 0.1 -0.24 c0 -0.16 -0.18 -0.12 -0.2 -0.14 z M64.074 5.42 c-0.02 0 -0.02 0.02 -0.02 0.04 c0 0 0 0.02 0.02 0.02 s0.02 -0.02 0.02 -0.02 c0 -0.02 0 -0.04 -0.02 -0.04 z M64.054 5.380000000000001 c-0.02 0 -0.02 0.02 -0.02 0.02 c0 0.02 0 0.02 0.02 0.02 c0 0 0.02 0 0.02 -0.02 z M52.394 5.279999999999999 c-0.02 0 -0.02 0.02 -0.02 0.02 c0 0.02 0.06 0.06 0.1 0.08 l0 -0.1 l-0.08 0 z M53.553999999999995 5.279999999999999 c0.02 0.02 0.04 0.08 0.04 0.08 c0.02 0 0.02 0 0.02 -0.02 l0 -0.12 l0 0 l-0.02 0 c0 0 -0.02 0.02 -0.04 0.06 z M51.254 5.18 l0 0.08 c0.04 -0.04 0.08 -0.06 0.08 -0.12 c0 -0.02 -0.04 -0.02 -0.06 -0.02 s-0.02 0.02 -0.02 0.02 l0 0.04 z M53.053999999999995 5.18 c0 0.04 0 0.06 0.04 0.08 c0.02 -0.02 0.04 -0.04 0.04 -0.08 l-0.08 0 z M62.833999999999996 5.18 l0 0.08 l0.02 0 z M63.333999999999996 5.140000000000001 l0 0.12 c0.06 0 0.08 -0.08 0.08 -0.12 l-0.08 0 z M63.494 5.140000000000001 c0 0.08 0.02 0.12 0.06 0.12 c0.02 0 0.02 0 0.02 -0.02 c0 -0.06 -0.04 -0.1 -0.06 -0.1 l-0.02 0 z M61.474 5.119999999999999 l-0.02 0.02 s0.08 0.08 0.14 0.08 c0 0 0.02 0 0.1 -0.08 c0 -0.02 -0.16 -0.02 -0.22 -0.02 z M65.014 5.140000000000001 c-0.06 0 -0.06 0.04 -0.06 0.1 c0.02 0 0.06 -0.06 0.1 -0.1 l-0.04 0 z M51.994 5.140000000000001 c0.02 0.04 0.02 0.06 0.04 0.06 s0.02 -0.02 0.04 -0.02 l0 -0.04 l-0.08 0 z M61.314 5.119999999999999 l0 0.02 l0.02 0 z M68.812 20.08 c-0.22 0 -0.22 0.02 -0.36 0.02 c-0.04 0 -0.22 -0.16 -0.28 -0.22 c0 0 0.04 -0.3 0.04 -0.36 c0.72 -0.06 1.24 -0.08 1.8 -0.14 c0.06 0 0 -0.38 0.22 -0.38 l0 -0.32 c0.02 0.02 0.04 0.02 0.04 0.02 c0.12 0 0.1 -0.56 0.26 -0.6 c0 -0.04 0.08 -0.72 0.28 -0.88 l0.1 -0.38 s0.68 -2.32 0.94 -2.32 c0.02 0 0.06 0.02 0.08 0.02 c0.1 0 0.12 -0.04 0.12 -0.08 c0 -0.18 -0.16 -0.1 -0.16 -0.24 c0 -0.36 0.36 -1.04 0.4 -1.08 c0.02 -0.82 0.32 -0.62 0.32 -1.14 l0 0.02 c0.02 0 0.18 -0.5 0.26 -0.56 c0 0.04 0.02 0.04 0.02 0.04 s-0.02 0 -0.02 -0.02 c0 -0.12 0.4 -0.94 0.4 -1.16 c0.1 0 0.12 -0.02 0.12 -0.06 s-0.02 -0.08 -0.02 -0.14 c0 -0.12 0.04 -0.24 0.18 -0.4 l0 0.02 c0.04 0 0.02 -0.44 0.18 -0.44 l0.08 -0.38 l0.12 -0.1 l0 -0.32 l0.16 -0.12 l0 -0.34 s0.12 -0.04 0.12 -0.08 c-0.02 0 -0.04 -0.04 -0.04 -0.06 c0 -0.26 0.5 -1.02 0.5 -1.54 l0.1 -0.08 l0 -0.32 c0 0.02 0.02 0.02 0.02 0.02 c0.28 0 -0.1 -1.16 0.94 -1.16 c0.08 0 0.44 0.22 0.44 0.52 c0.08 0.08 -0.08 0.28 0.28 0.94 c0.02 0 0.5 1.3 0.5 1.64 c0.18 0 0.06 0.4 0.52 1.36 c0.12 0.54 0.34 0.52 0.34 0.76 l0 -0.02 s0.1 0.64 0.18 0.64 l-0.02 0 c0 0.08 0.48 0.6 0.48 1.22 c0.12 0.58 0.32 0.34 0.32 0.84 l-0.02 -0.02 c0 0.04 0.32 0.46 0.32 0.72 c-0.02 0 -0.04 0 -0.04 0.02 c0 0.08 0.22 0.36 0.22 0.46 c0 0.02 -0.02 0.02 -0.02 0.04 c0 0.04 0.2 0.2 0.2 0.56 c0.08 0.7 0.42 0.74 0.42 1.18 c-0.02 0.04 -0.04 0.06 -0.04 0.08 c0 0.1 0.32 0.1 0.32 0.56 c0 1.14 0.78 1.4 0.78 2.2 c0.08 0.64 0.46 0.86 0.52 0.9 l1.3 0 c0.08 0 0.2 0.06 0.26 0.1 l0 0.36 c-0.08 0.04 -0.14 0.12 -0.46 0.12 c-0.04 0 -1 -0.04 -1.4 -0.04 c-0.18 0 -0.34 0.04 -0.5 0.04 c-0.02 0 -0.34 -0.04 -0.38 -0.04 c-1.08 0 -1.76 0.06 -2.18 0.06 c-0.02 0 -0.02 -0.06 -0.34 -0.06 c-0.16 0 -0.2 0 -0.28 0.04 c-0.1 0 -0.18 -0.04 -0.22 -0.1 c-0.04 0 -0.12 0.02 -0.12 0.02 l0.04 0.04 l-0.04 0.04 c-0.66 0 -0.72 0 -0.86 -0.12 l0.04 -0.34 c0 -0.04 0.14 -0.12 0.22 -0.12 l1.5 0 c0.02 0.02 0.16 -0.1 0.16 -0.2 c0 -0.04 -0.32 -0.46 -0.32 -0.7 c0.04 -0.02 0.04 -0.02 0.04 -0.06 c0 -0.1 -0.34 -0.36 -0.34 -0.88 c0.02 0 0.02 0 0.02 -0.02 c0 -0.04 -0.22 -0.2 -0.22 -0.36 c0 -0.72 -0.32 -0.72 -0.32 -1.26 l0 0.02 c-0.04 0 -0.22 -0.5 -0.4 -0.5 c-1.34 0 -2.76 0.04 -4.38 0.04 c0 0.08 -0.16 0.12 -0.16 0.34 c-0.3 0.66 -0.34 0.56 -0.34 0.88 c-0.24 0.16 0.02 0.28 -0.26 0.62 c-0.16 1.1 -0.38 0.48 -0.38 1.22 l0 -0.02 c-0.04 0 -0.22 0.52 -0.24 0.52 c0 0.32 0.08 0.32 0.2 0.4 l1.6 0 c0.1 0 0.3 0.02 0.3 0.26 s-0.06 0.36 -0.42 0.36 c-0.06 0 -0.14 -0.04 -0.24 -0.04 c-0.22 0 -0.3 0.04 -0.4 0.04 c-0.04 0 -0.14 -0.04 -0.16 -0.04 l-1.42 0 c-0.04 0.04 -0.08 0.04 -0.12 0.04 c-0.06 0 -0.16 -0.02 -0.24 -0.08 c0 0 0.04 -0.04 0.04 -0.08 l-0.06 0 c-0.04 0 -0.06 0 -0.06 0.04 l0.02 0.04 c-0.02 0.08 -0.04 0.08 -0.16 0.08 c0 -0.26 0 -0.2 0.06 -0.28 c-0.02 -0.08 0.02 -0.18 -0.04 -0.22 c0 0.14 -0.06 0.24 -0.18 0.32 c0 0.04 0.06 0.08 0.1 0.1 c-0.08 0 -0.3 0.1 -0.34 0.16 c-0.36 0 -0.32 -0.08 -0.54 -0.08 z M68.652 19.92 l0 0.04 l0.1 0 c-0.06 -0.04 -0.08 -0.04 -0.1 -0.04 z M68.992 19.96 c0 -0.02 -0.02 -0.02 -0.04 -0.02 s-0.04 0 -0.04 0.02 s0.02 0.04 0.04 0.04 s0.04 -0.02 0.04 -0.04 z M69.11200000000001 19.92 c-0.02 0 -0.04 0.02 -0.04 0.04 s0.02 0.04 0.04 0.04 s0.02 -0.02 0.02 -0.04 s0 -0.04 -0.02 -0.04 z M69.552 19.88 c-0.12 0 -0.28 0.04 -0.32 0.08 c0.34 0 0.24 -0.02 0.32 -0.08 z M70.212 19.9 c0 0.02 0.16 0.04 0.18 0.06 l0.04 -0.04 c-0.1 -0.02 -0.2 -0.02 -0.22 -0.02 z M71.69200000000001 19.92 c0.26 0 0.66 0.04 0.76 0.04 c-0.22 0 -0.22 -0.22 -0.24 -0.32 c0.02 0 -0.16 0.04 -0.16 0.16 c-0.04 0 -0.02 -0.12 -0.18 -0.12 c0 0.14 -0.08 0.18 -0.18 0.24 z M72.61200000000001 19.92 l0.04 0.04 c0.02 0 0.14 -0.04 0.18 -0.04 l-0.22 0 z M69.852 19.9 c-0.02 0 -0.04 0.02 -0.04 0.04 c0 0 0.02 0.02 0.04 0.02 s0.02 -0.02 0.02 -0.02 c0 -0.02 0 -0.04 -0.02 -0.04 z M71.432 19.92 c0 0 -0.04 -0.02 -0.06 -0.02 c-0.04 0 -0.04 0.02 -0.04 0.02 c0 0.02 0 0.04 0.04 0.04 c0.02 0 0.06 -0.02 0.06 -0.04 z M76.352 19.88 c0.02 0.02 0.08 0.04 0.1 0.04 s0.12 -0.02 0.16 -0.04 l0 -0.24 s-0.04 -0.02 -0.06 -0.02 c-0.18 0 -0.2 0.04 -0.2 0.12 l0 0.14 z M81.772 19.9 c0.06 0 0.08 0.02 0.18 0.02 c0.02 0 0.12 -0.02 0.18 -0.02 l-0.36 0 z M82.732 19.9 l0 0.02 l0.02 -0.02 l-0.02 0 z M76.912 19.88 l-0.04 0.02 l0.06 0.02 z M78.412 19.88 c-0.02 0 -0.04 0.02 -0.04 0.02 s0.02 0.02 0.04 0.02 s0.02 -0.02 0.02 -0.02 s0 -0.02 -0.02 -0.02 z M81.152 19.88 c0.02 0.02 0.04 0.02 0.1 0.02 l0.38 0 c-0.02 -0.02 -0.06 -0.04 -0.1 -0.06 c-0.04 0.04 -0.1 0.04 -0.12 0.04 c-0.18 0 -0.14 -0.14 -0.18 -0.14 z M68.33200000000001 19.74 c0 0.12 0 0.1 0.04 0.14 l0.26 0 l0 -0.34 c-0.28 0.14 -0.3 0.08 -0.3 0.2 z M72.552 19.78 l0 0.1 c0.04 0 0.06 -0.04 0.06 -0.04 c-0.02 -0.12 -0.08 -0.12 -0.08 -0.22 c-0.08 0 -0.12 0.04 -0.12 0.06 c0.02 0.04 0.04 0.1 0.14 0.1 z M82.33200000000001 19.84 c-0.02 0 -0.02 0.02 -0.02 0.04 s0 0.02 0.02 0.02 s0.02 0 0.02 -0.02 s0 -0.04 -0.02 -0.04 z M68.872 19.62 c0 0.16 -0.02 0.2 -0.06 0.22 c0.12 0 0.22 0 0.22 -0.12 s-0.02 -0.1 -0.16 -0.1 z M70.992 19.8 l0 0.04 l0.04 0 z M71.352 19.72 l0.04 0.02 l0 -0.06 z M72.652 19.58 c0 0.02 0 0.06 0.02 0.06 c0 0 0.08 0 0.08 -0.06 c0 -0.04 -0.04 -0.04 -0.08 -0.06 c-0.02 0.02 -0.02 0.04 -0.02 0.06 z M81.792 19.62 c0 0.02 0.04 0.02 0.06 0.02 c0 -0.1 0 -0.1 -0.04 -0.12 c0 0 -0.02 0.06 -0.02 0.1 z M82.672 19.48 c-0.1 0.02 -0.08 0.06 -0.08 0.16 l0.16 -0.1 c0 -0.02 -0.06 -0.04 -0.08 -0.06 z M81.152 19.54 c-0.02 0 -0.04 0.02 -0.04 0.02 c0 0.02 0.02 0.02 0.04 0.02 s0.02 0 0.02 -0.02 c0 0 0 -0.02 -0.02 -0.02 z M70.172 19.48 l0 0.06 l0.04 -0.06 l-0.04 0 z M70.232 19.18 c0 0.02 0.02 0.3 0.2 0.3 c-0.04 -0.02 -0.1 -0.2 -0.1 -0.3 l0.04 -0.12 l-0.04 -0.04 c-0.08 0 -0.1 0.12 -0.1 0.16 z M70.97200000000001 18.24 c-0.06 0.04 -0.14 0.16 -0.14 0.32 c0.02 0.02 0.04 0.02 0.04 0.02 c0.08 0 0.1 -0.12 0.12 -0.18 c0 -0.02 -0.02 -0.18 -0.02 -0.16 z M70.872 17.72 c0 -0.02 -0.02 -0.02 -0.02 -0.02 c-0.02 0 -0.02 0 -0.02 0.02 s0 0.02 0.02 0.02 c0 0 0.02 0 0.02 -0.02 z M71.432 16.28 c-0.02 0 -0.04 0.02 -0.04 0.02 s0.02 0.02 0.04 0.02 l0.02 -0.02 z M77.112 16 c-0.02 0 -0.02 0.02 -0.02 0.04 s0 0.04 0.02 0.04 s0.02 -0.02 0.02 -0.04 s0 -0.04 -0.02 -0.04 z M71.61200000000001 15.84 c-0.02 0 -0.02 0.02 -0.02 0.04 s0 0.04 0.02 0.04 s0.02 -0.02 0.02 -0.04 s0 -0.04 -0.02 -0.04 z M71.61200000000001 15.42 c-0.02 0 -0.02 0.02 -0.02 0.02 c0 0.02 0 0.02 0.02 0.02 s0.02 0 0.02 -0.02 c0 0 0 -0.02 -0.02 -0.02 z M72.532 14.6 c0.06 0.24 0.08 0.26 0.22 0.34 c0.24 0 0.9 -0.04 2.72 -0.04 c0.16 0 0.24 0.06 0.64 0.06 c0.2 0 0.4 -0.06 0.4 -0.28 c0 -0.1 -0.26 -0.48 -0.26 -0.68 l0.02 0 c0 -0.04 -0.22 -0.22 -0.22 -0.44 c0 -0.74 -0.38 -0.66 -0.38 -1.12 c0.02 0.02 0.02 0.04 0.02 0.04 c-0.02 0 -0.38 -0.66 -0.38 -1.04 c0 -0.26 -0.36 -0.64 -0.36 -1.08 l0.02 0 c0 -0.04 -0.22 -0.24 -0.22 -0.48 c-0.18 -0.42 -0.2 -0.38 -0.36 -0.38 c-0.58 1.38 -0.54 1.4 -0.72 1.74 c0 -0.04 -0.02 0.64 -0.28 0.74 l0 -0.04 c-0.02 0 -0.22 1.14 -0.42 1.32 c0 0.26 -0.44 0.6 -0.44 1.34 z M72.132 14.04 c-0.02 0 -0.04 0.02 -0.04 0.04 s0.02 0.04 0.04 0.04 s0.02 -0.02 0.02 -0.04 s0 -0.04 -0.02 -0.04 z M72.592 12.719999999999999 c-0.02 0 -0.04 0.02 -0.04 0.04 c0 0 0.02 0.02 0.04 0.02 l0 -0.06 z M73.432 11.54 l0 0.02 l0.02 0 z M73.352 11.22 c-0.02 0 -0.04 0.02 -0.04 0.04 l0.04 0 l0.02 0 c0 -0.02 0 -0.04 -0.02 -0.04 z M73.432 10.7 c-0.02 0 -0.04 0.02 -0.04 0.02 c0 0.02 0.02 0.04 0.04 0.04 c0 0 0.02 -0.02 0.02 -0.04 z M73.97200000000001 9.34 c0 -0.02 -0.02 -0.02 -0.02 -0.02 c-0.02 0 -0.02 0 -0.02 0.02 s0 0.04 0.02 0.04 c0 0 0.02 -0.02 0.02 -0.04 z M74.032 9.28 l-0.02 0 c0 0.02 0.02 0.02 0.02 0.02 s0.02 0 0.02 -0.02 l-0.02 0 z M76.212 7.880000000000001 c-0.02 0 -0.02 0.02 -0.02 0.04 s0 0.04 0.02 0.04 s0.02 -0.02 0.02 -0.04 s0 -0.04 -0.02 -0.04 z M75.83200000000001 5.1 c0 0 -0.02 0.02 -0.02 0.04 l0.04 0 c0 -0.02 0 -0.04 -0.02 -0.04 z M75.312 5.0600000000000005 c-0.02 0 -0.02 0.02 -0.02 0.04 s0 0.04 0.02 0.04 s0.02 -0.02 0.02 -0.04 s0 -0.04 -0.02 -0.04 z M75.47200000000001 5.0600000000000005 l0.08 0.04 c0.16 0 0.1 0 0.16 -0.04 l-0.06 -0.08 c-0.08 0 -0.12 0.08 -0.18 0.08 z M84.39000000000001 13.3 c0 -2.52 0.22 -2.4 0.48 -3.58 l0 0.02 c0.02 0 0.1 -0.6 0.36 -0.8 c-0.02 0 -0.02 -0.02 -0.02 -0.02 c0 -0.12 0.32 -0.42 0.32 -0.68 c0.56 -0.68 0.32 -0.62 0.82 -1.12 c-0.02 0 -0.02 -0.02 -0.02 -0.04 c0 -0.06 0.76 -0.7 0.88 -0.88 c0 0.02 0.02 0.02 0.02 0.02 c0.1 0 0.48 -0.44 0.62 -0.52 c0.18 0 0.2 -0.38 0.66 -0.38 c0.1 0 0.64 -0.46 0.86 -0.46 c0.66 -0.1 -0.2 -0.36 2.42 -0.36 c1.02 0 1.86 0.5 1.96 0.5 c0.02 0 0.02 -0.02 0.02 -0.02 c0 0.3 0.84 0.44 0.86 0.5 c0.98 0 0.18 -0.56 1.4 -0.56 c0.1 0 0.26 0.06 0.26 0.3 c0 1.32 0.1 1.94 0.1 2.38 c0 0.02 -0.02 0.08 -0.04 0.16 c0 0.02 0.04 0.2 0.04 0.26 c0 1.1 -0.1 0.98 -0.18 1.24 l-0.4 0 l-0.12 -0.12 s-0.16 -0.32 -0.24 -0.44 c-0.04 -0.14 -0.44 -0.64 -0.44 -0.7 c0 -0.38 -0.34 -0.26 -0.34 -0.7 c-0.54 -0.54 -0.42 -0.66 -0.78 -0.86 c-0.04 0 -0.2 -0.32 -0.3 -0.32 c-0.18 -0.06 -0.58 -0.54 -0.74 -0.54 c0.02 0.02 0.02 0.02 0.02 0.04 c-0.06 0 -0.62 -0.44 -1.26 -0.44 c-0.14 0 -0.1 0.14 -0.2 0.14 c-0.38 0 -0.3 0 -0.54 -0.14 c-0.92 0 -1.12 0.42 -1.3 0.42 c-0.3 0 -0.54 0.44 -0.74 0.56 c-0.26 0.96 -0.56 0.36 -0.56 1.1 c0 0.6 -0.24 0.84 -0.26 0.86 l0 0.44 l-0.04 0.04 c0 0.32 -0.14 1.74 -0.14 2.22 l-0.02 0.08 c0 0.22 -0.08 1.34 -0.08 1.54 c0 0.08 0 0.62 0.04 0.74 l0 0.08 c0 1.44 0.06 1.78 0.12 2.86 c0 -0.02 0 0.64 0.16 0.9 c0.06 0.54 0.32 0.72 0.32 1.02 c0.06 0.14 -0.04 0.22 0.72 0.96 c-0.02 0 -0.02 0 -0.02 0.02 c0 0.04 0.56 0.18 0.78 0.4 c0.04 0.04 0.6 0.22 1.42 0.22 c0.88 0 1.22 0.14 1.78 -0.42 c0.52 0 0.28 -0.34 0.56 -0.58 c0 -0.18 0.44 -0.78 0.44 -2.32 c0 -0.04 -0.06 -1.2 -0.1 -1.18 c0.04 0 -0.5 -0.1 -0.8 -0.1 c-0.1 0 -0.98 0.02 -1.06 0.02 c0 0.02 -0.02 0.02 -0.02 0.02 c-0.08 0 -0.22 -0.06 -0.22 -0.34 c0 -0.38 2.08 -0.38 3.18 -0.38 c0.06 0 0.1 0 0.2 0.04 c0.92 0 1.04 -0.04 1.26 -0.04 c0.04 0 0.12 0.04 0.18 0.04 l0.86 0 s0.4 -0.08 0.7 -0.08 c0.68 0 0.46 0.14 0.58 0.28 c0 0.36 -0.02 0.32 -0.14 0.38 l0.04 0.06 l-1.28 0 c-0.26 1.02 -0.16 1.22 -0.52 2.22 c-0.1 0.06 -0.08 0.48 -0.56 0.94 c0 0.04 -0.62 0.44 -0.66 0.58 c-0.3 0.3 -0.3 0.34 -0.66 0.44 c-0.06 -0.06 -0.28 0.3 -0.4 0.3 c-0.14 0 -0.7 0.28 -0.82 0.28 c0.22 0 -1.62 0.38 -2.56 0.38 c-0.08 0 -0.16 -0.02 -0.18 -0.06 c-0.16 0.06 -0.26 0.04 -0.32 0.04 l0.04 0 s-1.18 -0.2 -1.38 -0.2 c0 0.02 0.02 0.02 0.02 0.04 l-0.02 0 c-0.04 0 -0.52 -0.36 -0.74 -0.36 c-0.04 0.02 -0.08 0.02 -0.1 0.02 c-0.32 0 -0.4 -0.44 -0.68 -0.44 c-0.34 -0.1 -0.2 -0.1 -0.48 -0.32 c0 -0.02 -0.48 -0.16 -0.66 -0.58 c-0.44 -0.14 -1.24 -1.72 -1.44 -1.92 l0.02 -0.02 c0 -0.08 -0.24 -0.26 -0.24 -0.42 c0.06 -0.12 -0.3 -0.54 -0.3 -0.82 l0.02 0.02 c0.14 0.12 -0.22 -0.26 -0.22 -0.92 c0 0 0 0.02 0.02 0.02 c0.14 0.12 -0.22 -0.2 -0.22 -0.96 z M91.07000000000001 20.04 c0 0 -0.02 0.02 -0.02 0.04 l0.04 0 c0 -0.02 0 -0.04 -0.02 -0.04 z M90.87 19.92 l-0.08 0.08 l0.08 0 l0 -0.08 z M93.27000000000001 19.54 c-0.02 0 -0.04 0.02 -0.04 0.04 s0.02 0.04 0.04 0.04 s0.02 -0.02 0.02 -0.04 s0 -0.04 -0.02 -0.04 z M87.61000000000001 18.86 l0 0.08 l0.04 0 z M97.45000000000002 14.98 c0.02 0.04 0.06 0.04 0.1 0.04 c0.08 0 0.1 0.02 0.18 -0.04 l-0.28 0 z M92.37 14.940000000000001 c-0.02 0 -0.04 0.02 -0.04 0.04 s0.02 0.04 0.04 0.04 c0 0 0.02 -0.02 0.02 -0.04 s-0.02 -0.04 -0.02 -0.04 z M93.11000000000001 14.940000000000001 l-0.04 0.04 l0.08 0 z M93.77000000000001 14.9 c0 0 -0.04 0.06 -0.08 0.08 c0.02 0 0.04 0.02 0.16 -0.04 c-0.02 -0.02 -0.04 -0.04 -0.08 -0.04 z M97.77000000000001 14.940000000000001 c-0.02 0 -0.04 0.02 -0.04 0.04 s0.02 0.04 0.04 0.04 s0.02 -0.02 0.02 -0.04 s0 -0.04 -0.02 -0.04 z M98.07000000000001 14.98 c0 -0.02 -0.02 -0.02 -0.06 -0.02 c-0.02 0 -0.04 0 -0.04 0.02 s0.02 0.04 0.04 0.04 c0.04 0 0.06 -0.02 0.06 -0.04 z M92.23 14.879999999999999 c0.02 0.02 0.02 0.02 0.08 0.02 c-0.06 -0.02 -0.08 -0.02 -0.08 -0.02 z M84.79 14.66 l0 0.08 l0.04 -0.06 z M98.67000000000002 14.559999999999999 c-0.06 0 -0.18 0.04 -0.18 0.06 c0.06 0 0.18 0.04 0.18 -0.06 z M85.65 8.98 c0 -0.02 -0.02 -0.02 -0.04 -0.02 s-0.04 0 -0.04 0.02 s0.02 0.04 0.04 0.04 s0.04 -0.02 0.04 -0.04 z M86.91000000000001 6.9 c0 0.04 0 0.04 0.02 0.06 l-0.02 0 c0.04 0 0.14 -0.1 0.18 -0.14 c0 -0.02 -0.02 -0.02 -0.04 -0.02 c-0.06 0 -0.12 0.04 -0.14 0.1 z M87.65 6.08 l0 0.08 c0.02 0 0.02 -0.02 0.02 -0.04 s0 -0.04 -0.02 -0.04 z M93.49000000000001 5.84 c0 0.06 0 0.08 0.02 0.08 c0 0 0.02 -0.02 0.04 -0.02 c0 0 0.02 0.02 0.02 0.04 c0 0 -0.04 -0.08 -0.08 -0.14 l0 0.04 z M95.33000000000001 5.4399999999999995 c-0.02 0 -0.04 0.02 -0.04 0.02 c0 0.02 0.02 0.02 0.04 0.02 s0.02 0 0.02 -0.02 c0 0 0 -0.02 -0.02 -0.02 z M96.07000000000001 5.34 c0.04 0.02 0.06 0.04 0.1 0.04 c-0.02 -0.06 -0.06 -0.04 -0.1 -0.04 z M96.01 5.300000000000001 c-0.02 0 -0.04 0.02 -0.04 0.02 s0.02 0.02 0.04 0.02 s0.02 -0.02 0.02 -0.02 s0 -0.02 -0.02 -0.02 z M90.35000000000001 5.140000000000001 l-0.04 0 c0 0.02 0 0.04 0.02 0.04 c0 0 0.02 -0.02 0.02 -0.04 z M89.81 4.9 c0 0.16 0.02 0.24 0.14 0.24 c0.04 0 0.14 -0.08 0.14 -0.08 c-0.14 -0.16 -0.18 -0.1 -0.28 -0.16 z M89.53000000000002 4.98 c-0.08 0 -0.06 0.1 -0.06 0.16 c0.02 0 0.04 -0.1 0.06 -0.16 z M92.95000000000002 4.960000000000001 c0 0 -0.02 0 0.04 0.06 c0 -0.02 0.02 -0.04 0.02 -0.06 l-0.06 0 z M91.15 4.800000000000001 l0 0.16 c0.02 0 0.1 -0.06 0.1 -0.06 c0 -0.12 -0.06 -0.1 -0.1 -0.1 z M92.37 4.9 l-0.1 0.04 l0.1 0 l0 -0.04 z M92.71000000000001 4.9 c-0.02 0 -0.02 0.02 -0.02 0.02 c0 0.02 0 0.02 0.02 0.02 s0.02 0 0.02 -0.02 c0 0 0 -0.02 -0.02 -0.02 z M90.87 4.74 c-0.02 0 -0.04 0.02 -0.04 0.04 c0 0 0.02 0.02 0.04 0.02 l0.02 -0.02 c0 -0.02 -0.02 -0.04 -0.02 -0.04 z M102.568 19.72 l0 -0.1 l0.24 -0.24 l0.98 0 l0.08 0.04 l0.46 0.04 c0.08 0.04 0.18 -0.26 0.24 -0.26 l0 -2.42 c0 -0.02 -0.04 -0.26 -0.04 -0.28 c0 0 0.04 -0.48 0.04 -0.58 c0.04 -0.06 -0.06 0.08 -0.06 -0.32 c0 -0.04 0.06 -0.08 0.06 -0.16 c0 -0.14 -0.04 -0.22 -0.04 -0.32 c0 -0.04 0.04 -0.18 0.04 -0.26 l0 -1.26 c0 -0.18 -0.06 -0.5 -0.06 -0.74 l0.02 -1.72 c-0.02 -0.08 -0.02 -0.6 -0.02 -0.7 c0 -0.06 0.02 -0.52 0.02 -0.58 c0 -0.02 -0.02 -1.04 -0.02 -1.16 c0 -1.24 0.02 -1.46 0.02 -2 c0 -0.24 0 -0.76 -0.02 -0.92 l-0.12 -0.14 s-0.4 -0.02 -0.56 -0.02 c-0.26 0 -0.46 0.06 -0.7 0.06 c-0.22 -0.04 -0.44 0.12 -0.64 -0.34 c0 -0.18 0.04 -0.4 0.22 -0.44 c4.08 0 4.5 0.04 6.12 0.04 c3.88 0 3.66 -0.04 5.28 -0.04 c0.2 0 0.42 3.66 0.42 3.84 c0 0.02 0.02 0.02 0.02 0.04 c0 0.24 -0.36 0.42 -0.48 0.42 c-0.26 0 -0.4 -0.28 -0.48 -0.6 c0.08 0 -0.86 -1.54 -0.82 -1.46 c-0.26 -0.26 -0.28 -0.3 -0.44 -0.5 c0 -0.18 -0.86 -0.58 -0.96 -0.72 c0 0.02 -0.02 0.02 -0.02 0.02 c-0.06 0 -0.12 -0.24 -0.54 -0.24 c-0.56 0 -0.52 -0.08 -1.38 -0.08 l0 -0.04 l-0.62 0 l-0.04 0.04 l-0.26 0 l0.14 -0.04 c-0.46 0 -0.66 -0.06 -0.78 -0.06 c-0.18 0 -0.4 0.1 -0.4 0.68 c0 1.12 0.04 1.72 0.04 2 c0 0.3 -0.04 1.18 -0.04 1.3 c0 0.34 0.08 0.62 0.08 0.86 c-0.04 0 -0.08 0.14 -0.08 0.2 s0.08 0.44 0.08 0.62 c0 0.04 -0.04 0.1 -0.04 0.12 c0 0.06 -0.06 0.82 0.14 0.82 c0.46 0 0.8 -0.12 1.16 -0.12 l0 0.02 c0.06 0 0.24 -0.3 0.38 -0.3 c0.24 0 0.28 -0.08 0.54 -0.34 l0 0.02 c-0.02 0 0.34 -0.72 0.54 -0.96 c0.34 -0.16 -0.12 -1 0.88 -1 l0.06 0.04 c0 0.18 0.1 0.24 0.1 0.8 c-0.02 0.16 -0.04 0.68 -0.04 0.64 c0 0.22 0.04 0.56 0.04 0.84 c0 0.24 0 0.24 -0.04 0.36 c0 0.2 0.04 0.46 0.04 0.52 c0 0.26 -0.04 0.26 -0.04 0.46 c0 0.16 0.04 1.24 0.04 1.38 c0 0.08 -0.04 0.16 -0.04 0.28 l0 0.74 c0.02 0.02 -0.16 0.16 -0.26 0.16 c-0.64 0 -0.1 -0.12 -0.82 -1.42 c-0.56 -0.98 -0.74 -0.94 -1.06 -1.22 c0.02 0 -0.58 -0.2 -0.72 -0.2 l-0.06 -0.1 l-0.64 -0.02 c-0.3 0.16 -0.26 1 -0.26 0.68 c0 0.08 0.06 0.28 0.06 0.58 c0 0.14 -0.02 0.38 -0.06 0.6 c0 0.02 0.06 0.2 0.06 0.32 c0 0.2 -0.04 0.18 -0.04 0.26 c0 0.14 0.04 0.22 0.04 0.28 c-0.06 0.78 -0.08 2.18 -0.08 2.42 c0 1.26 -0.02 1.36 0.28 1.66 l0.86 0 c0.08 -0.02 0.18 -0.08 0.26 -0.08 c0.02 0 1.2 0.04 1.36 0.04 s0.02 -0.1 0.44 -0.1 c0.76 -0.3 0.72 -0.04 1.36 -0.54 c-0.02 0 -0.02 -0.02 -0.02 -0.02 c0 -0.06 0.5 -0.28 0.76 -0.6 c-0.02 0 -0.02 -0.02 -0.02 -0.02 c0 -0.3 0.88 -0.52 0.88 -1.24 c0 -0.08 0.36 -0.54 0.36 -0.66 c0.5 -1.26 0.18 -1.2 0.82 -1.2 c0.02 0 0.24 0 0.24 0.26 c0 1.3 -0.2 2.9 -0.2 3.8 c0 0.14 0.02 0.28 0.02 0.42 c0 0.24 -0.08 0.44 -0.56 0.44 l-7.7 0 c-1.16 0 -1.58 0.04 -3.72 0.04 c-0.38 -0.12 -0.28 -0.28 -0.28 -0.32 z M102.768 19.8 l0 -0.02 l0 0.06 c0 0.06 0.02 0.14 0.2 0.14 c0.04 0 0.1 0 0.16 -0.02 l0 -0.04 l-0.16 -0.18 c-0.02 0.04 -0.04 0.08 -0.08 0.1 c-0.02 0 -0.08 -0.02 -0.12 -0.06 l0 0.02 z M109.86800000000001 19.88 l0.02 0.04 c0.02 -0.02 0.02 -0.02 0.02 -0.08 z M109.08800000000001 19.84 c-0.06 0 -0.08 0 -0.1 0.04 l0.1 0 l0 -0.04 z M103.468 19.62 c0.04 0 0.12 0.04 0.14 0.04 c0.18 0 0.12 0 0.18 -0.04 c-0.04 0 -0.18 -0.04 -0.2 -0.04 c-0.08 0 -0.08 0 -0.12 0.04 z M114.44800000000001 19.62 c0.02 0.06 0.08 0.04 0.12 0.04 c-0.02 -0.04 -0.06 -0.04 -0.12 -0.04 z M105.00800000000001 19.62 c0 -0.02 -0.02 -0.02 -0.04 -0.02 s-0.04 0 -0.04 0.02 s0.02 0.04 0.04 0.04 s0.04 -0.02 0.04 -0.04 z M102.888 19.56 l0 0.02 l0.2 0 c-0.04 -0.02 -0.16 -0.02 -0.2 -0.02 z M104.72800000000001 16.9 l-0.02 -0.02 c-0.02 0 -0.02 0.02 -0.02 0.02 c0 0.02 0 0.04 0.02 0.04 c0 0 0.02 -0.02 0.02 -0.04 z M104.688 16.04 l0 0.08 c0.02 0 0.02 -0.02 0.02 -0.04 s0 -0.04 -0.02 -0.04 z M104.72800000000001 15.92 c0.02 0.04 0.06 0.04 0.12 0.04 c0 -0.04 0.02 -0.16 -0.04 -0.2 c0 0.04 -0.08 0.1 -0.08 0.16 z M104.848 15.54 c0 0.02 0 0.04 0.02 0.06 l0.02 -0.06 l-0.04 0 z M114.848 15.54 c-0.02 0 -0.04 0.02 -0.04 0.04 c0 0 0.02 0.02 0.04 0.02 s0.02 -0.02 0.02 -0.02 c0 -0.02 0 -0.04 -0.02 -0.04 z M114.94800000000001 15.5 c-0.02 0 -0.02 0.02 -0.02 0.04 c0 0 0 0.02 0.02 0.02 l0 -0.06 z M104.72800000000001 12.48 c-0.02 0 -0.04 0.02 -0.04 0.04 c0 0 0.02 0.02 0.04 0.02 s0.02 -0.02 0.02 -0.02 c0 -0.02 0 -0.04 -0.02 -0.04 z M104.86800000000001 12.48 c0 -0.02 0 -0.02 -0.02 -0.02 l0 0.04 c0.02 0 0.02 0 0.02 -0.02 z M104.72800000000001 11.6 l-0.02 -0.02 c-0.02 0 -0.02 0.02 -0.02 0.02 c0 0.02 0 0.04 0.02 0.04 c0 0 0.02 -0.02 0.02 -0.04 z M111.108 9.92 c0 -0.02 -0.02 -0.02 -0.04 -0.02 c0 0 -0.02 0 -0.02 0.02 s0.02 0.04 0.02 0.04 c0.02 0 0.04 -0.02 0.04 -0.04 z M113.94800000000001 8.96 c-0.02 0 -0.04 0.02 -0.04 0.04 c0 0 0.02 0.02 0.04 0.02 s0.02 -0.02 0.02 -0.02 c0 -0.02 0 -0.04 -0.02 -0.04 z M106.988 7.960000000000001 c-0.02 0.02 -0.02 0.06 -0.02 0.08 l0.22 0 c-0.02 -0.04 -0.1 -0.08 -0.2 -0.08 z M104.688 7.18 l0 0.08 c0.02 0 0.02 -0.02 0.02 -0.04 s0 -0.04 -0.02 -0.04 z M104.688 6.16 l0 0.08 c0.02 0 0.02 -0.02 0.02 -0.04 s0 -0.04 -0.02 -0.04 z M114.14800000000001 5.42 l0 0.2 l0.02 -0.1 c0 -0.04 0 -0.06 -0.02 -0.1 z M103.988 5.539999999999999 c-0.02 0 -0.02 0.02 -0.02 0.04 s0 0.04 0.02 0.04 s0.02 -0.02 0.02 -0.04 s0 -0.04 -0.02 -0.04 z M105.668 5.58 c0 -0.02 -0.02 -0.02 -0.02 -0.02 c-0.02 0 -0.02 0 -0.02 0.02 s0 0.04 0.02 0.04 c0 0 0.02 -0.02 0.02 -0.04 z M103.42800000000001 5.380000000000001 c-0.18 0 -0.08 0.14 -0.14 0.16 c0.12 0 0.14 -0.02 0.14 -0.06 c0 -0.02 -0.02 -0.04 -0.02 -0.06 s0.02 -0.02 0.02 -0.04 z M103.908 5.48 l0.06 0.04 l0.02 -0.04 l-0.04 -0.02 z M103.028 5.42 c-0.02 0 -0.02 0.02 -0.02 0.04 c0 0 0 0.02 0.02 0.02 s0.02 -0.02 0.02 -0.02 c0 -0.02 0 -0.04 -0.02 -0.04 z M103.22800000000001 5.34 l-0.14 0.04 l0.14 0 l0 -0.04 z M105.00800000000001 5.34 c-0.02 0 -0.04 0.02 -0.04 0.02 c0 0.02 0.02 0.02 0.04 0.02 c0 0 0.02 0 0.02 -0.02 z M107.028 5.34 l0 0.04 l0.02 0 z M103.328 5.34 l-0.04 0 c0 0.02 0 0.04 0.02 0.04 c0 0 0.02 -0.02 0.02 -0.04 z M103.78800000000001 5.32 c-0.04 0 -0.04 0.04 -0.04 0.04 c0.02 0 0.02 -0.02 0.04 -0.04 z M104.64800000000001 5.34 l-0.04 0 c0 0.02 0 0.04 0.02 0.04 c0 0 0.02 -0.02 0.02 -0.04 z M107.908 5.32 c-0.04 0 -0.08 0.02 -0.12 0.02 l0.14 0 z M102.72800000000001 5.32 c0 0 0 -0.02 -0.02 -0.02 l0 0.04 c0.02 0 0.02 0 0.02 -0.02 z M108.768 5.26 c0 0.08 0.02 0.04 0.04 0.06 c0 0 0.02 0 0.04 -0.02 l-0.04 -0.08 z M114.06800000000001 5.0600000000000005 l0 0.24 l0.04 0 c0 -0.06 0.02 -0.24 -0.04 -0.24 z M103.548 5.1 c-0.02 0 -0.04 0.02 -0.04 0.02 c0 0.02 0.02 0.02 0.04 0.02 s0.02 0 0.02 -0.02 c0 0 0 -0.02 -0.02 -0.02 z M102.888 5.1 l-0.02 -0.04 z M103.128 5.02 c-0.04 0.02 -0.06 0.04 -0.06 0.06 l0.02 0.02 l0.04 0 l0 -0.08 z M119.046 19.82 l0 -0.1 c0.04 -0.04 -0.02 -0.38 0.42 -0.38 c0.34 0 0.4 0.02 0.58 0.02 c0.4 0 0.7 -0.02 0.76 -0.12 l0 -1.7 c0 -0.04 -0.02 -0.18 -0.02 -0.2 l-0.02 0.02 c-0.04 -0.04 0.04 0.18 0.04 -0.54 c0 -1.5 -0.02 -2.06 -0.02 -2.56 c0 -0.32 0 -0.94 0.04 -1.46 c0 -0.04 -0.08 -0.3 -0.08 -0.8 c0 -0.24 0.06 -0.24 0.06 -0.36 c0 -0.32 -0.02 -0.62 -0.02 -0.86 c0 -0.42 0.02 -0.74 0.02 -1.2 c0 -0.12 0.3 -0.1 0.36 -0.16 c0 0 0 -0.1 -0.18 -0.1 c0 0 -0.06 0 -0.12 0.08 c-0.02 0 -0.04 -0.02 -0.06 -0.08 l0 -3.38 c0 -0.26 -0.06 -0.42 -0.32 -0.42 c-0.38 0 -0.46 0.06 -1.14 0.06 c-0.54 0 -0.22 -0.08 -0.52 -0.26 c0 -0.48 1.5 -0.34 1.92 -0.4 l-0.06 0 c0 0.02 1.16 0.08 1.16 0.08 c0.04 0 0.08 0.02 0.12 0.02 c0.24 0 0.34 -0.1 0.52 -0.1 c0.08 0 0.16 0.02 0.26 0.02 c0.06 0 0.22 -0.02 0.32 -0.02 c0.24 0 0.96 0.02 1.18 0.02 c0.16 0 0.28 -0.06 0.6 -0.06 c0.1 0 1.84 0.04 2.06 0.04 c0.4 0 1.06 0.2 1.6 0.2 c0.76 0.08 0.3 0.18 1.06 0.36 c-0.02 0 -0.04 -0.02 -0.04 -0.02 c0 0.02 0.56 0.32 0.56 0.38 c0.24 0.06 0.6 0.56 0.78 0.72 l-0.02 -0.02 s0.54 0.76 0.54 1.44 c0 0.74 0 0.78 -0.16 1.28 c0 0.34 -0.46 0.94 -1.26 1.62 c-0.1 -0.04 -0.22 0.34 -0.58 0.34 c0.06 -0.2 -0.1 0.26 -0.66 0.3 c-0.02 -0.02 -0.04 -0.02 -0.04 -0.02 c-0.1 0 -0.24 0.18 -0.32 0.18 c-0.76 0.2 -1.1 0.12 -1.1 0.42 c0 0 -0.04 0.16 0.12 0.16 c0.22 -0.04 0.58 0.32 0.7 0.32 c0.42 0 0.5 0.38 0.84 0.38 c0.36 0.16 0.5 0.28 0.94 0.74 c0.44 1.3 0.78 0.6 0.78 1.58 c0 0.54 0.18 0.92 0.18 1.46 c0 0.08 -0.04 0.42 -0.04 1.12 c0.04 0.26 0.06 0.78 0.14 0.86 l0 -0.04 c0 0.02 -0.06 0.66 0.64 0.66 c0.48 0 0.7 -0.06 0.84 -0.06 c0 0 0.02 0.02 0.04 0.02 c0.04 0 0.14 -0.04 0.22 -0.04 s0.16 0.02 0.2 0.1 l-0.14 0 c0 0.1 0.06 0.1 0.06 0.14 c0.04 -0.02 0.06 -0.06 0.08 -0.06 l0.02 0 l0 0.26 c-0.06 0 -0.06 -0.06 -0.06 -0.14 c-0.04 0.02 -0.06 0.02 -0.16 0.06 c0 0.04 0.02 0.08 0.16 0.14 c-0.08 0.04 -0.1 0.14 -0.2 0.14 l0 -0.02 s-0.1 0.2 -0.7 0.2 c-0.22 0 -1.58 -0.08 -1.94 -0.1 c0 0.02 0 0.02 -0.02 0.02 c-0.16 0 -0.54 -0.4 -0.86 -0.4 l0.02 0 c0 -0.08 -0.9 -0.5 -0.92 -0.88 l0.02 0.02 c0 -0.02 -0.2 -0.2 -0.2 -0.26 c0 -0.04 0.02 -0.16 0.02 -0.28 c0 -0.06 -0.06 -0.06 -0.16 -0.1 c-0.14 -3.26 -0.44 -4.16 -0.74 -4.6 c-0.06 0.22 0.08 -0.24 -0.38 -0.46 c0 -0.14 -0.62 -0.36 -0.6 -0.44 c-0.04 0 -0.08 0.02 -0.1 0.02 c-0.42 0 -0.4 -0.4 -1.08 -0.4 l-1.08 0 c-0.22 0.46 -0.22 1.04 -0.22 1.32 c0 0.06 0 0.52 0.04 0.56 c0 0.02 -0.02 0.08 -0.06 0.28 c0 0.06 0.04 0.3 0.04 0.46 l0 -0.02 c0 0.12 -0.02 0.56 -0.02 0.7 c0 0.26 0.02 0.32 0.02 0.5 l0 2.32 c0 0.04 0.04 0.16 0.04 0.2 c0 0.06 -0.04 0.18 -0.04 0.26 c0 0.26 0.04 0.3 0.04 0.4 c-0.02 0.02 -0.04 0.02 -0.04 0.04 c0 0.06 0.28 0.1 0.82 0.1 c0.02 0 0.42 -0.04 0.44 -0.04 c0.56 0 0.56 0.04 0.68 0.2 c0 0.36 -0.08 0.42 -0.14 0.42 c-0.02 0 -0.04 -0.02 -0.08 -0.1 c-0.1 0 -0.12 0 -0.12 0.02 c0.16 0.18 -1.94 0.18 -2.16 0.18 l0.04 0 s-0.68 -0.02 -0.94 -0.08 c-0.8 0.08 -2.18 0 -2.74 0.2 c-0.24 0 -0.46 0 -0.46 -0.32 z M131.386 19.94 c-0.02 0 -0.04 0.02 -0.04 0.04 s0.02 0.04 0.04 0.04 c0 0 0.02 -0.02 0.02 -0.04 s-0.02 -0.04 -0.02 -0.04 z M131.92600000000002 19.76 c-0.14 0 -0.1 0.08 -0.16 0.18 c0 0 0.02 0.02 0.04 0.02 c0.06 0 0.12 -0.1 0.12 -0.2 z M120.08600000000001 19.88 c-0.04 0 -0.1 0 -0.14 0.02 c0.04 0 0.1 0 0.14 -0.02 z M120.126 19.88 l0 0.02 l0.04 0 z M120.846 19.9 l-0.02 -0.02 c-0.02 0 -0.02 0.02 -0.02 0.02 c0 0.02 0 0.04 0.02 0.04 c0 0 0.02 -0.02 0.02 -0.04 z M121.22600000000001 19.86 c-0.02 0.02 -0.04 0.02 -0.04 0.04 c0.02 0 0.06 0 0.08 -0.02 z M124.32600000000001 19.82 l0 0.06 l0.12 0 c-0.04 -0.04 -0.06 -0.06 -0.12 -0.06 z M125.10600000000001 19.86 c-0.02 0 -0.04 0.02 -0.04 0.02 s0.02 0.02 0.04 0.02 s0.02 -0.02 0.02 -0.02 s0 -0.02 -0.02 -0.02 z M132.006 19.7 c-0.02 0.06 0.08 0.16 0.08 0.18 c0.1 0 0.1 0 0.16 -0.02 c-0.06 -0.18 0 -0.22 -0.16 -0.3 c-0.06 0.04 -0.08 0.02 -0.08 0.14 z M124.046 19.82 l-0.04 0.04 l0.04 0 l0 -0.04 z M125.38600000000001 19.46 c0 0.18 0.12 0.18 0.12 0.32 l0.04 0 l0 -0.22 c-0.02 -0.04 -0.06 -0.08 -0.16 -0.1 z M119.38600000000001 19.5 l0 0.06 c0 -0.02 0.02 0.18 0.14 0.18 c0.02 0 0.06 -0.04 0.1 -0.08 c-0.02 0.02 -0.16 -0.16 -0.22 -0.16 l-0.02 0 z M119.72600000000001 19.7 c0 -0.02 -0.02 -0.02 -0.02 -0.02 c-0.02 0 -0.02 0 -0.02 0.02 c0 0 0 0.02 0.02 0.02 z M124.08600000000001 19.66 c-0.02 0 -0.02 0.02 -0.02 0.02 c0 0.02 0 0.02 0.02 0.02 s0.02 0 0.02 -0.02 c0 0 0 -0.02 -0.02 -0.02 z M124.706 19.6 l0 0.1 c0.04 -0.02 0.08 -0.04 0.1 -0.08 c-0.04 -0.02 -0.06 -0.02 -0.1 -0.02 z M119.38600000000001 19.36 c-0.02 0 -0.02 0.02 -0.02 0.04 s0 0.04 0.02 0.04 s0.02 -0.02 0.02 -0.04 s0 -0.04 -0.02 -0.04 z M128.606 18.84 c0.02 0.04 0.04 0.1 0.04 0.1 c0.02 0 0.02 0 0.02 -0.02 l0 -0.08 l-0.06 0 z M123.02600000000001 18.3 l0.08 0.04 c0.04 -0.02 0.04 -0.06 0.04 -0.1 c-0.06 0 -0.08 0.02 -0.12 0.06 z M127.766 17.5 c0.02 0 0.02 0.02 0.02 0.04 c0 0 0 0.02 -0.02 0.02 s-0.02 -0.02 -0.02 -0.02 c0 -0.02 0 -0.04 0.02 -0.04 z M128.006 17.48 c0.02 0.02 0.04 0.02 0.08 0.02 c-0.04 -0.02 -0.06 -0.02 -0.08 -0.02 z M121.066 15.4 c-0.02 0 -0.04 0.02 -0.04 0.04 s0.02 0.04 0.04 0.04 s0.02 -0.02 0.02 -0.04 s0 -0.04 -0.02 -0.04 z M120.906 14.879999999999999 c-0.02 0 -0.04 0.02 -0.04 0.04 s0.02 0.04 0.04 0.04 s0.02 -0.02 0.02 -0.04 s0 -0.04 -0.02 -0.04 z M127.58600000000001 12.48 c-0.02 0 -0.04 0.02 -0.04 0.02 c0 0.02 0.02 0.04 0.04 0.04 c0 0 0.02 -0.02 0.02 -0.04 z M122.80600000000001 12.14 l0 0.08 l0.02 0.02 c0.06 0 0.14 -0.08 0.14 -0.1 l-0.16 0 z M122.846 11.94 c0 0.02 -0.02 0.02 -0.02 0.02 c0 0.02 0.02 0.02 0.08 0.02 c0 0 0.02 0 0.06 -0.02 c-0.02 -0.06 0 -0.08 -0.06 -0.16 c-0.02 0 -0.08 0.12 -0.06 0.14 z M123.686 10.22 l0 1.02 c0 0.34 0.2 0.4 0.38 0.5 c3.18 -0.08 3.18 -0.52 3.48 -0.82 c-0.02 0 -0.02 -0.02 -0.02 -0.02 c0 -0.1 0.3 -0.3 0.3 -0.44 l-0.02 0 c0 -0.08 0.42 -0.74 0.42 -1.6 c0 -2.04 -0.56 -2.42 -0.64 -2.84 c0 -0.02 -0.6 -0.54 -1.3 -0.54 c-0.44 0 -0.54 0.04 -0.7 0.04 l-1.5 0 c-0.42 0 -0.26 0.2 -0.38 0.42 l0 1.58 l0.04 0.1 c0 0.78 -0.08 1.5 -0.08 2.2 c0 0.04 0 0.1 0.06 0.16 c0 0.04 -0.04 0.1 -0.04 0.24 z M121.066 9.78 c-0.02 0 -0.04 0.02 -0.04 0.02 l0.04 0 l0.02 0 s0 -0.02 -0.02 -0.02 z M121.006 9.68 c-0.02 0 -0.02 0.02 -0.02 0.04 c0 0 0 0.02 0.02 0.02 l0.02 -0.02 c0 -0.02 -0.02 -0.04 -0.02 -0.04 z M121.066 9.58 c-0.02 0 -0.04 0.02 -0.04 0.04 c0 0 0.02 0.02 0.04 0.02 s0.02 -0.02 0.02 -0.02 c0 -0.02 0 -0.04 -0.02 -0.04 z M120.906 8.42 l0 0.1 l0.04 0 c0 -0.04 0 -0.08 -0.04 -0.1 z M129.92600000000002 6.1 c0.02 0.04 0.08 0.04 0.1 0.04 l0 -0.12 c-0.06 0 -0.1 0 -0.1 0.08 z M128.406 5.42 c-0.02 0 -0.04 0.02 -0.04 0.04 s0.02 0.02 0.04 0.02 s0.02 0 0.02 -0.02 s0 -0.04 -0.02 -0.04 z M120.126 5.279999999999999 c0.04 0.02 0.08 0.02 0.12 0.02 l-0.08 -0.06 z M122.066 5.279999999999999 l0 -0.02 c-0.02 0 -0.02 0 -0.02 0.02 s0 0.02 0.02 0.02 l0 -0.02 z M126.74600000000001 5.24 l0.08 0.04 c0.1 0 0.1 -0.04 0.1 -0.14 c0 -0.02 -0.02 -0.02 -0.1 -0.02 c-0.04 0 -0.08 0 -0.08 0.12 z M124.706 5.119999999999999 c0 0.04 -0.02 0.12 0.04 0.12 c0.02 -0.02 0.04 -0.08 0.06 -0.12 l-0.1 0 z M127.506 5.199999999999999 c-0.02 0 -0.04 0.02 -0.04 0.02 c0 0.02 0.02 0.02 0.04 0.02 s0.02 0 0.02 -0.02 c0 0 0 -0.02 -0.02 -0.02 z M120.426 5.119999999999999 l0 0.04 c0 -0.02 0.06 0.04 0.1 -0.04 l-0.1 0 z M125.58600000000001 5.119999999999999 c-0.04 0 -0.06 0.02 -0.08 0.04 l0.08 0 l0 -0.04 z M119.046 5.119999999999999 l0.02 0 l0.48 0 l-0.5 0 z"></path></g></svg>